<svg width="24" height="24" viewBox="0 0 24 24" fill="none" xmlns="http://www.w3.org/2000/svg">
<path d="M12.0007 2.2002C6.58816 2.19992 2.2002 6.58766 2.2002 12.0002C2.2002 13.435 2.50905 14.7998 3.06465 16.03C3.26688 16.4777 3.41041 16.7958 3.50955 17.0355C3.61421 17.2885 3.64071 17.3886 3.64555 17.419C3.66631 17.5494 3.66874 17.5985 3.66809 17.6315C3.66744 17.6644 3.66307 17.7134 3.63719 17.8429C3.61116 17.9731 3.5277 18.1565 3.19915 18.8135L2.28466 20.6424C2.16066 20.8904 2.17391 21.1849 2.31967 21.4208C2.46544 21.6566 2.72293 21.8002 3.0002 21.8002H12.0007C17.4129 21.7999 21.8002 17.4124 21.8002 12.0002C21.8002 6.58795 17.4129 2.20047 12.0007 2.2002Z" fill="#B4B4B3"/>
</svg>
