<svg width="24" height="25" viewBox="0 0 24 25" fill="none" xmlns="http://www.w3.org/2000/svg">
<g id="Send Plane">
<path id="Subtract" d="M17.5726 2.61023C18.3461 2.74505 19.0825 3.03232 19.6071 3.5845C20.1267 4.13144 20.3925 4.89115 20.5176 5.68681C20.6446 6.49413 20.6405 7.42603 20.5466 8.41105C20.3586 10.383 19.7989 12.6829 19.0649 14.8622C18.3306 17.0421 17.4073 19.1444 16.4699 20.7174C16.003 21.501 15.515 22.1834 15.0243 22.6805C14.5659 23.145 13.9619 23.5956 13.2643 23.5956C12.258 23.5956 11.53 23.1314 11.0092 22.459C9.83745 20.9463 9.64607 18.9162 8.83319 17.2047C8.6482 16.8152 8.67726 16.3466 8.95463 16.0164L12.8657 11.3612C13.1782 11.0488 13.1782 10.5423 12.8657 10.2299C12.5533 9.91745 12.0468 9.91745 11.7344 10.2299L6.89401 14.2965C6.58795 14.5537 6.15928 14.6006 5.78987 14.4479C4.36149 13.8572 2.74526 13.5305 1.56411 12.5167C0.918707 11.9627 0.5 11.2129 0.5 10.2016C0.5 9.51612 0.903387 8.89979 1.35276 8.4084C1.8254 7.89157 2.47538 7.37627 3.22246 6.88301C4.72135 5.89335 6.72368 4.91901 8.79954 4.14425C10.874 3.37002 13.0678 2.77792 14.9534 2.57872C15.8953 2.47921 16.792 2.47418 17.5726 2.61023Z" fill="#B4B4B3"/>
</g>
</svg>
