<svg width="24" height="24" viewBox="0 0 24 24" fill="none" xmlns="http://www.w3.org/2000/svg">
<path fill-rule="evenodd" clip-rule="evenodd" d="M11.8005 2C8.28393 2 5.732 2.48723 4.10975 4.10928C2.48747 5.73135 2 8.28319 2 11.8C2 15.3225 2.50859 17.8722 4.14057 19.4927C5.77114 21.1117 8.31954 21.6 11.8005 21.6C15.2814 21.6 17.8296 21.1117 19.4599 19.4926C21.0917 17.8722 21.6 15.3224 21.6 11.8C21.6 8.28326 21.1128 5.73142 19.4908 4.10933C17.8687 2.48723 15.317 2 11.8005 2ZM7.8 9.5C8.24183 9.5 8.6 9.85817 8.6 10.3V16.2C8.6 16.6418 8.24183 17 7.8 17C7.35817 17 7 16.6418 7 16.2L7 10.3C7 9.85817 7.35817 9.5 7.8 9.5ZM16.6 12.6C16.6 12.1582 16.2418 11.8 15.8 11.8C15.3582 11.8 15 12.1582 15 12.6L15 16.2C15 16.6418 15.3582 17 15.8 17C16.2418 17 16.6 16.6418 16.6 16.2V12.6ZM11.8 7C12.2418 7 12.6 7.35817 12.6 7.8V16.2C12.6 16.6418 12.2418 17 11.8 17C11.3582 17 11 16.6418 11 16.2L11 7.8C11 7.35817 11.3582 7 11.8 7Z" fill="#B4B4B3"/>
</svg>
