<svg width="24" height="24" viewBox="0 0 24 24" fill="none" xmlns="http://www.w3.org/2000/svg">
<path fill-rule="evenodd" clip-rule="evenodd" d="M12.8002 3.93157V7.20015H11.2002V3.93157L9.56588 5.56588C9.25346 5.8783 8.74693 5.8783 8.43451 5.56588C8.12209 5.25346 8.12209 4.74693 8.43451 4.43451L11.4345 1.43451C11.7469 1.12209 12.2535 1.12209 12.5659 1.43451L15.5659 4.43451C15.8783 4.74693 15.8783 5.25346 15.5659 5.56588C15.2535 5.8783 14.7469 5.8783 14.4345 5.56588L12.8002 3.93157ZM12.0002 14.8002C12.442 14.8002 12.8002 14.4421 12.8002 14.0002L12.8002 7.2002H16.0002C17.896 7.2002 19.4274 7.72324 20.4443 9.03137C21.423 10.2904 21.8002 12.1265 21.8002 14.4541C21.8002 16.7763 21.4268 18.7427 19.8177 20.0524C18.2703 21.3118 15.7627 21.8002 12.0002 21.8002C8.23767 21.8002 5.73007 21.3118 4.18269 20.0524C2.57358 18.7427 2.2002 16.7763 2.2002 14.4541C2.2002 12.1265 2.57737 10.2904 3.55608 9.03137C4.57296 7.72324 6.10442 7.2002 8.0002 7.2002H11.2002V14.0002C11.2002 14.4421 11.5584 14.8002 12.0002 14.8002Z" fill="#B4B4B3"/>
</svg>
