<svg width="24" height="24" viewBox="0 0 24 24" fill="none" xmlns="http://www.w3.org/2000/svg">
<path d="M12 21L11.613 21.3166L12 21.7896L12.387 21.3166L12 21ZM21.387 10.3166C21.5618 10.1029 21.5303 9.78789 21.3166 9.61302C21.1029 9.43816 20.7879 9.46966 20.613 9.68338L21.387 10.3166ZM2.61302 10.3166L11.613 21.3166L12.387 20.6834L3.38698 9.68338L2.61302 10.3166ZM12.387 21.3166L21.387 10.3166L20.613 9.68338L11.613 20.6834L12.387 21.3166Z" fill="#151614"/>
<rect x="9" y="18" width="6" height="5" rx="1" fill="#151614"/>
<g clip-path="url(#clip0_313_5299)">
<path fill-rule="evenodd" clip-rule="evenodd" d="M20.9285 13.7718C19.6405 18.0998 16.2856 22 12 22C11.161 22 10.3576 21.8505 9.59844 21.5776L5.40687 15.7094L4.59313 16.2906L7.62216 20.5313C5.48432 19.0075 3.87535 16.473 3.07145 13.7718C3.34893 13.9176 3.66484 14 4 14C5.10457 14 6 13.1046 6 12C6 13.1046 6.89543 14 8 14C9.10457 14 10 13.1046 10 12C10 13.1046 10.8954 14 12 14C13.1046 14 14 13.1046 14 12C14 13.1046 14.8954 14 16 14C17.1046 14 18 13.1046 18 12C18 13.1046 18.8954 14 20 14C20.3352 14 20.6511 13.9176 20.9285 13.7718ZM21.4816 10.6566C21.1157 10.2533 20.5874 10 20 10C18.8954 10 18 10.8954 18 12C18 10.8954 17.1046 10 16 10C14.8954 10 14 10.8954 14 12C14 10.8954 13.1046 10 12 10C10.8954 10 10 10.8954 10 12C10 10.8954 9.10457 10 8 10C6.89543 10 6 10.8954 6 12C6 10.8954 5.10457 10 4 10C3.41255 10 2.88426 10.2533 2.51836 10.6566C2.50617 10.4365 2.5 10.2175 2.5 10C2.5 4.47715 6.47715 2 12 2C17.5228 2 21.5 4.47715 21.5 10C21.5 10.2175 21.4938 10.4365 21.4816 10.6566Z" fill="#151614"/>
</g>
<defs>
<clipPath id="clip0_313_5299">
<rect width="20" height="10" fill="white" transform="translate(2 2)"/>
</clipPath>
</defs>
</svg>
