<svg width="16" height="16" viewBox="0 0 16 16" fill="none" xmlns="http://www.w3.org/2000/svg">
<g id="fi-rr-balloons" clip-path="url(#clip0_180_1279)">
<path id="Vector" d="M12.5653 7.6865C13.0047 6.97533 13.2631 6.16732 13.318 5.33317C13.318 5.15636 13.2477 4.98679 13.1227 4.86177C12.9977 4.73674 12.8281 4.6665 12.6513 4.6665C12.4745 4.6665 12.3049 4.73674 12.1799 4.86177C12.0549 4.98679 11.9846 5.15636 11.9846 5.33317C11.9305 5.91708 11.7423 6.48062 11.4346 6.97983C11.3882 7.05425 11.3569 7.13708 11.3425 7.22358C11.3282 7.31009 11.3309 7.39859 11.3508 7.48402C11.3706 7.56945 11.407 7.65014 11.458 7.72148C11.509 7.79283 11.5735 7.85343 11.648 7.89983C11.7224 7.94623 11.8052 7.97752 11.8917 7.99191C11.9782 8.0063 12.0667 8.00351 12.1521 7.9837C12.3247 7.9437 12.4743 7.83679 12.568 7.6865H12.5653Z" fill="#374957"/>
<path id="Vector_2" d="M5.98479 4.6665C5.80798 4.6665 5.63841 4.73674 5.51339 4.86177C5.38836 4.98679 5.31813 5.15636 5.31813 5.33317C5.26403 5.91709 5.0758 6.48062 4.76813 6.97984C4.67442 7.13013 4.64425 7.31149 4.68426 7.48402C4.72426 7.65655 4.83117 7.80613 4.98146 7.89984C5.13175 7.99355 5.31311 8.02372 5.48564 7.98371C5.65817 7.9437 5.80775 7.83679 5.90146 7.6865C6.33991 6.97509 6.59741 6.1671 6.65146 5.33317C6.65146 5.15636 6.58122 4.98679 6.45619 4.86177C6.33117 4.73674 6.1616 4.6665 5.98479 4.6665Z" fill="#374957"/>
<path id="Vector_3" d="M13 12.3929C12.5453 12.1516 12.076 11.9016 12.0107 11.6183C11.98 11.4896 11.994 11.1996 12.354 10.6363C14.4667 10.3336 16 7.35027 16 4.66693C16.0186 4.13663 15.9279 3.60817 15.7335 3.11444C15.539 2.62071 15.2451 2.17228 14.8699 1.79707C14.4946 1.42186 14.0462 1.12789 13.5525 0.933461C13.0588 0.739033 12.5303 0.648308 12 0.666932C11.3553 0.649275 10.7163 0.791433 10.1399 1.08073C9.56356 1.37002 9.06773 1.79746 8.69667 2.32493C8.18213 1.43722 7.38913 0.744021 6.4406 0.352773C5.49207 -0.0384749 4.44097 -0.105921 3.45021 0.160889C2.45946 0.427698 1.58437 1.01386 0.960591 1.82853C0.336811 2.6432 -0.000829377 3.64088 1.52993e-06 4.66693C1.52993e-06 7.31427 1.50467 10.3236 3.59333 11.1236C3.44882 11.3642 3.35998 11.6342 3.33333 11.9136C3.33333 12.9609 4.326 13.4249 5.05067 13.7643C5.45067 13.9509 6 14.2076 6 14.4063C5.94569 14.6133 5.84848 14.8066 5.71467 14.9736C5.66739 15.0473 5.6351 15.1296 5.61963 15.2158C5.60416 15.302 5.60582 15.3904 5.62452 15.476C5.64322 15.5615 5.67858 15.6426 5.72859 15.7144C5.7786 15.7863 5.84229 15.8477 5.916 15.8949C6.06488 15.9904 6.24558 16.0228 6.41837 15.9851C6.50392 15.9664 6.58495 15.931 6.65684 15.881C6.72873 15.831 6.79006 15.7673 6.83733 15.6936C7.1203 15.3196 7.29219 14.8734 7.33333 14.4063C7.33333 13.3589 6.34067 12.8949 5.616 12.5563C5.216 12.3689 4.66667 12.1123 4.66067 11.9796C4.76202 11.7408 4.88898 11.5137 5.03934 11.3023C6.60734 11.0983 7.92667 9.6356 8.674 7.8356C9.09377 8.94716 9.90211 9.86895 10.9493 10.4303C10.7009 10.8855 10.6171 11.4124 10.712 11.9223C10.916 12.7956 11.7247 13.2256 12.3747 13.5716C12.7853 13.7903 13.25 14.0383 13.3207 14.2836C13.3382 14.5405 13.2638 14.7952 13.1107 15.0023C13.0662 15.0781 13.0372 15.162 13.0253 15.2491C13.0134 15.3362 13.0188 15.4248 13.0413 15.5098C13.0637 15.5948 13.1028 15.6745 13.1562 15.7444C13.2096 15.8142 13.2763 15.8728 13.3525 15.9168C13.4286 15.9607 13.5127 15.9892 13.5999 16.0005C13.687 16.0119 13.7756 16.0058 13.8605 15.9828C13.9453 15.9598 14.0248 15.9202 14.0943 15.8663C14.1637 15.8124 14.2219 15.7454 14.2653 15.6689C14.4396 15.4162 14.5596 15.1301 14.6177 14.8286C14.6757 14.5272 14.6706 14.217 14.6027 13.9176C14.4542 13.5672 14.2354 13.2511 13.9597 12.9888C13.684 12.7265 13.3573 12.5237 13 12.3929ZM4.66667 10.0003C2.90267 10.0003 1.33333 7.0176 1.33333 4.66693C1.33333 3.78288 1.68452 2.93503 2.30965 2.30991C2.93477 1.68479 3.78261 1.3336 4.66667 1.3336C5.55072 1.3336 6.39857 1.68479 7.02369 2.30991C7.64881 2.93503 8 3.78288 8 4.66693C8 7.0176 6.43067 10.0003 4.66667 10.0003ZM9.33333 4.66693C9.31324 4.31148 9.36845 3.95578 9.49535 3.62314C9.62226 3.2905 9.81799 2.98842 10.0697 2.73667C10.3215 2.48492 10.6236 2.28919 10.9562 2.16228C11.2888 2.03538 11.6445 1.98017 12 2.00027C12.3555 1.98017 12.7112 2.03538 13.0438 2.16228C13.3764 2.28919 13.6785 2.48492 13.9303 2.73667C14.182 2.98842 14.3777 3.2905 14.5047 3.62314C14.6316 3.95578 14.6868 4.31148 14.6667 4.66693C14.6667 6.9336 13.296 9.3336 12 9.3336C10.704 9.3336 9.33333 6.9336 9.33333 4.66693Z" fill="#374957"/>
</g>
<defs>
<clipPath id="clip0_180_1279">
<rect width="16" height="16" fill="white"/>
</clipPath>
</defs>
</svg>
