<svg width="64" height="64" viewBox="0 0 64 64" fill="none" xmlns="http://www.w3.org/2000/svg">
<rect width="64" height="64" rx="32" fill="#5D5FEF"/>
<path d="M20.5822 22.1473C17.2302 21.3931 13.7575 23.4425 13.2686 25.1884C9.74858 27.3672 9.42782 31.6132 9.70745 33.4638C9.25335 33.7781 8.09376 34.9513 7.08813 37.1301C7.28013 38.5372 9.11212 41.844 15.1878 41.844C21.2634 41.844 25.5114 39.5394 32.3437 39.5394C39.1761 39.5394 43.4247 41.844 49.5004 41.844C55.576 41.844 57.408 38.5372 57.6 37.1301C56.5944 34.9513 55.4348 33.778 54.9807 33.4638C55.2603 31.6132 54.9395 27.3672 51.4195 25.1883C50.9306 23.4425 47.4579 21.3931 44.1059 22.1473C39.9159 23.0901 35.8006 25.1884 32.3437 25.1884C28.8869 25.1884 24.7722 23.0901 20.5822 22.1473Z" fill="white"/>
<path d="M25.7592 33.7979C22.6855 24.4959 17.4242 24.4051 14.5385 25.5225C16.585 25.5225 18.8101 27.7181 18.5725 30.4159C18.3824 32.5742 15.0263 31.3152 13.3721 30.4159C12.5382 31.4951 12.9126 35.3424 13.2601 37.0366C18.4128 39.8052 24.5847 36.7344 25.7592 33.7979Z" fill="#151614"/>
<path d="M39 33.7979C42.0738 24.4959 47.3351 24.4051 50.2208 25.5225C48.1742 25.5225 45.9491 27.7181 46.1868 30.4159C46.3768 32.5742 49.7329 31.3152 51.3872 30.4159C52.2211 31.4951 51.8466 35.3424 51.4992 37.0366C46.3465 39.8052 40.1746 36.7344 39 33.7979Z" fill="#151614"/>
</svg>
