<svg width="20" height="19" viewBox="0 0 20 19" fill="none" xmlns="http://www.w3.org/2000/svg">
<path fill-rule="evenodd" clip-rule="evenodd" d="M7.95004 5.24855C7.95082 2.73579 9.98815 0.699989 12.5 0.699989C15.0124 0.699989 17.05 2.73657 17.05 5.24999C17.05 7.76246 15.0125 9.79999 12.5 9.79999H12.4736L12.4707 9.79998C9.96626 9.79095 7.94178 7.75305 7.95004 5.24855ZM7.95004 5.24855L7.95004 5.2471L7.95004 5.24999L7.95004 5.24855Z" fill="#676766"/>
<path d="M12.5 11.2C10.6163 11.2 8.85276 11.6597 7.53461 12.4045C6.25828 13.1257 5.19996 14.2431 5.19996 15.6265C5.19996 16.3424 5.49393 16.935 5.97827 17.3848C6.43898 17.8126 7.05242 18.0958 7.70555 18.2917C9.00985 18.6829 10.7327 18.8 12.5 18.8C14.2782 18.8 16.0018 18.6783 17.3047 18.2818C17.9572 18.0832 18.5686 17.7971 19.0272 17.3672C19.5088 16.9157 19.8 16.323 19.8 15.6092C19.8 14.2228 18.7323 13.1102 17.4556 12.3948C16.1358 11.6553 14.3732 11.2 12.5 11.2Z" fill="#676766"/>
<path d="M6.43242 1.19933C4.19626 1.19933 2.38255 3.01163 2.38177 5.24855L2.38177 5.24999L2.38177 5.2471L2.38177 5.24855C2.3745 7.47832 4.17691 9.2926 6.40658 9.30065H6.43242C6.87424 9.30065 7.23242 8.94248 7.23242 8.50065C7.23242 8.05882 6.87424 7.70065 6.43242 7.70065H6.411C5.06485 7.69506 3.9769 6.59894 3.98176 5.25288L3.98177 5.24999C3.98177 3.89629 5.07921 2.79933 6.43242 2.79933C6.87424 2.79933 7.23242 2.44116 7.23242 1.99933C7.23242 1.5575 6.87424 1.19933 6.43242 1.19933Z" fill="#676766"/>
<path d="M4.16598 13.6209C4.58857 13.4919 4.82658 13.0448 4.6976 12.6222C4.56862 12.1996 4.12149 11.9616 3.69891 12.0906C2.75326 12.3792 1.90891 12.8185 1.28516 13.3767C0.666403 13.9305 0.200012 14.6657 0.200012 15.5236C0.200012 16.4413 0.733284 17.079 1.42197 17.4744C2.07688 17.8505 2.93463 18.0539 3.83143 18.168C4.26972 18.2238 4.67025 17.9137 4.72604 17.4754C4.78183 17.0371 4.47175 16.6366 4.03346 16.5808C3.20792 16.4757 2.59946 16.3055 2.21873 16.0869C1.87179 15.8877 1.80001 15.7095 1.80001 15.5236C1.80001 15.2762 1.93643 14.941 2.35219 14.569C2.76294 14.2013 3.38481 13.8593 4.16598 13.6209Z" fill="#676766"/>
</svg>
