<svg width="24" height="24" viewBox="0 0 24 24" fill="none" xmlns="http://www.w3.org/2000/svg">
<path d="M11.9795 0.0002994C11.8608 0.00413902 11.7446 0.0401356 11.6405 0.105327C11.5363 0.170519 11.4472 0.263043 11.3805 0.375285L5.38114 10.4296C5.32071 10.5307 5.27993 10.6453 5.26153 10.7659C5.24312 10.8865 5.24753 11.0102 5.27445 11.1287C5.30137 11.2472 5.35018 11.3577 5.4176 11.4528C5.48501 11.5479 5.56947 11.6254 5.66529 11.6801L11.6646 15.1035C11.7688 15.163 11.8836 15.194 12 15.194C12.1165 15.194 12.2313 15.163 12.3354 15.1035L18.3348 11.6801C18.4306 11.6254 18.5151 11.5479 18.5825 11.4528C18.6499 11.3577 18.6987 11.2472 18.7256 11.1287C18.7525 11.0102 18.7569 10.8865 18.7385 10.7659C18.7201 10.6453 18.6794 10.5307 18.6189 10.4296L12.6196 0.375285C12.5489 0.256492 12.4533 0.159898 12.3415 0.0943753C12.2296 0.0288529 12.1052 -0.00349643 11.9795 0.0002994ZM12 2.37744V8.5714L16.8891 10.5903L12 13.3793V8.5714L7.1827 10.4514L12 2.37744ZM5.97287 13.7141C5.83393 13.7198 5.69912 13.7696 5.58349 13.8578C5.46787 13.9461 5.37598 14.0693 5.3181 14.2138C5.26021 14.3583 5.2386 14.5183 5.25568 14.676C5.27276 14.8337 5.32786 14.9829 5.41483 15.1069L11.4142 23.678C11.4844 23.7784 11.5736 23.8596 11.675 23.9153C11.7764 23.9711 11.8875 24 12 24C12.1126 24 12.2237 23.9711 12.3251 23.9153C12.4265 23.8596 12.5156 23.7784 12.5859 23.678L18.5852 15.1069C18.6922 14.9543 18.7504 14.7645 18.75 14.569C18.7496 14.3734 18.6908 14.1839 18.5832 14.0319C18.4757 13.8798 18.3259 13.7744 18.1587 13.733C17.9915 13.6916 17.8169 13.7168 17.664 13.8045L12 17.0421L6.33611 13.8045C6.22359 13.74 6.09867 13.7089 5.97287 13.7141ZM8.72061 17.0839L11.6646 18.7663C11.7688 18.8258 11.8836 18.8568 12 18.8567V21.7696L8.72061 17.0839Z" fill="#A6D000"/>
</svg>
