<svg width="16" height="16" viewBox="0 0 16 16" fill="none" xmlns="http://www.w3.org/2000/svg">
<path d="M7.98635 0.0001996C7.90722 0.00275935 7.82975 0.0267571 7.76032 0.0702182C7.69089 0.113679 7.63148 0.175362 7.58698 0.25019L3.58743 6.95306C3.54714 7.02044 3.51995 7.09689 3.50768 7.17728C3.49542 7.25767 3.49835 7.34014 3.5163 7.41912C3.53425 7.49811 3.56679 7.57178 3.61173 7.63519C3.65668 7.6986 3.71298 7.75027 3.77686 7.78673L7.77641 10.069C7.84584 10.1087 7.9224 10.1293 8.00002 10.1293C8.07765 10.1293 8.1542 10.1087 8.22363 10.069L12.2232 7.78673C12.2871 7.75027 12.3434 7.6986 12.3883 7.63519C12.4333 7.57178 12.4658 7.49811 12.4837 7.41912C12.5017 7.34014 12.5046 7.25767 12.4924 7.17728C12.4801 7.09689 12.4529 7.02044 12.4126 6.95306L8.41306 0.25019C8.36596 0.170995 8.3022 0.106599 8.22764 0.0629169C8.15308 0.0192352 8.07011 -0.00233095 7.98635 0.0001996ZM8.00002 1.58496V5.71427L11.2594 7.0602L8.00002 8.9195V5.71427L4.78846 6.96757L8.00002 1.58496ZM3.98191 9.14271C3.88928 9.14654 3.79941 9.17972 3.72233 9.23855C3.64525 9.29739 3.58399 9.37955 3.5454 9.47587C3.50681 9.57218 3.4924 9.67887 3.50379 9.784C3.51518 9.88914 3.55191 9.98859 3.60988 10.0712L7.60944 15.7853C7.65628 15.8523 7.71571 15.9064 7.78332 15.9435C7.85093 15.9807 7.925 16 8.00002 16C8.07505 16 8.14911 15.9807 8.21672 15.9435C8.28434 15.9064 8.34376 15.8523 8.3906 15.7853L12.3902 10.0712C12.4615 9.96953 12.5002 9.84299 12.5 9.71264C12.4998 9.58228 12.4605 9.45594 12.3888 9.35457C12.3171 9.2532 12.2172 9.1829 12.1058 9.15533C11.9943 9.12775 11.8779 9.14456 11.776 9.20297L8.00002 11.3614L4.22407 9.20297C4.14906 9.15998 4.06578 9.13925 3.98191 9.14271ZM5.81374 11.3893L7.77641 12.5109C7.84585 12.5505 7.9224 12.5712 8.00002 12.5711V14.513L5.81374 11.3893Z" fill="#151614"/>
</svg>
