<svg width="24" height="24" viewBox="0 0 24 24" fill="none" xmlns="http://www.w3.org/2000/svg">
<mask id="path-1-inside-1_250_1223" fill="white">
<path fill-rule="evenodd" clip-rule="evenodd" d="M2.15372 8.43928C2 9.21207 2 10.1414 2 12C2 13.8586 2 14.7879 2.15372 15.5607C2.78497 18.7342 5.26575 21.215 8.43928 21.8463C9.21207 22 10.1414 22 12 22C13.8586 22 14.7879 22 15.5607 21.8463C18.7342 21.215 21.215 18.7342 21.8463 15.5607C22 14.7879 22 13.8586 22 12C22 10.1414 22 9.21207 21.8463 8.43928C21.215 5.26575 18.7342 2.78497 15.5607 2.15372C14.7879 2 13.8586 2 12 2C10.1414 2 9.21207 2 8.43928 2.15372C5.26575 2.78497 2.78497 5.26575 2.15372 8.43928ZM14.685 8.65998V15.5404H15.7269V12.513H18.4398V11.6775H15.7269V9.50529H19V8.65998H14.685ZM12.3451 15.5404V8.65998H13.387V15.5404H12.3451ZM6.21524 15.216C6.70015 15.5109 7.26697 15.6583 7.9157 15.6583C8.47269 15.6583 8.92483 15.5601 9.27213 15.3635C9.61943 15.1669 9.90775 14.8884 10.1371 14.528L10.2256 15.5404H11.179V11.8053H8.25972V12.6113H10.1273C10.0683 13.2535 9.86516 13.7679 9.51786 14.1545C9.17712 14.5411 8.666 14.7344 7.9845 14.7344C7.30956 14.7344 6.76896 14.5051 6.36268 14.0464C5.95641 13.5877 5.75327 12.9488 5.75327 12.1297C5.75327 11.3106 5.95968 10.6684 6.37251 10.2031C6.78534 9.73788 7.35216 9.50526 8.07297 9.50526C8.55787 9.50526 8.95432 9.6101 9.2623 9.81979C9.57028 10.0295 9.7767 10.3178 9.88154 10.6848H11.061C10.9038 10.0164 10.563 9.49215 10.0388 9.11209C9.51459 8.73202 8.8593 8.54199 8.07297 8.54199C7.37837 8.54199 6.77551 8.69598 6.26439 9.00397C5.75982 9.3054 5.36993 9.72478 5.09471 10.2621C4.81949 10.7994 4.68188 11.4187 4.68188 12.1198C4.68188 12.8275 4.81622 13.4468 5.08488 13.9776C5.35355 14.5083 5.73033 14.9212 6.21524 15.216Z"/>
</mask>
<path fill-rule="evenodd" clip-rule="evenodd" d="M2.15372 8.43928C2 9.21207 2 10.1414 2 12C2 13.8586 2 14.7879 2.15372 15.5607C2.78497 18.7342 5.26575 21.215 8.43928 21.8463C9.21207 22 10.1414 22 12 22C13.8586 22 14.7879 22 15.5607 21.8463C18.7342 21.215 21.215 18.7342 21.8463 15.5607C22 14.7879 22 13.8586 22 12C22 10.1414 22 9.21207 21.8463 8.43928C21.215 5.26575 18.7342 2.78497 15.5607 2.15372C14.7879 2 13.8586 2 12 2C10.1414 2 9.21207 2 8.43928 2.15372C5.26575 2.78497 2.78497 5.26575 2.15372 8.43928ZM14.685 8.65998V15.5404H15.7269V12.513H18.4398V11.6775H15.7269V9.50529H19V8.65998H14.685ZM12.3451 15.5404V8.65998H13.387V15.5404H12.3451ZM6.21524 15.216C6.70015 15.5109 7.26697 15.6583 7.9157 15.6583C8.47269 15.6583 8.92483 15.5601 9.27213 15.3635C9.61943 15.1669 9.90775 14.8884 10.1371 14.528L10.2256 15.5404H11.179V11.8053H8.25972V12.6113H10.1273C10.0683 13.2535 9.86516 13.7679 9.51786 14.1545C9.17712 14.5411 8.666 14.7344 7.9845 14.7344C7.30956 14.7344 6.76896 14.5051 6.36268 14.0464C5.95641 13.5877 5.75327 12.9488 5.75327 12.1297C5.75327 11.3106 5.95968 10.6684 6.37251 10.2031C6.78534 9.73788 7.35216 9.50526 8.07297 9.50526C8.55787 9.50526 8.95432 9.6101 9.2623 9.81979C9.57028 10.0295 9.7767 10.3178 9.88154 10.6848H11.061C10.9038 10.0164 10.563 9.49215 10.0388 9.11209C9.51459 8.73202 8.8593 8.54199 8.07297 8.54199C7.37837 8.54199 6.77551 8.69598 6.26439 9.00397C5.75982 9.3054 5.36993 9.72478 5.09471 10.2621C4.81949 10.7994 4.68188 11.4187 4.68188 12.1198C4.68188 12.8275 4.81622 13.4468 5.08488 13.9776C5.35355 14.5083 5.73033 14.9212 6.21524 15.216Z" fill="#B4B4B3"/>
<path d="M2.15372 8.43928L3.72297 8.75142V8.75142L2.15372 8.43928ZM2.15372 15.5607L3.72297 15.2486L2.15372 15.5607ZM8.43928 21.8463L8.12713 23.4155H8.12713L8.43928 21.8463ZM15.5607 21.8463L15.8729 23.4155H15.8729L15.5607 21.8463ZM21.8463 15.5607L23.4155 15.8729V15.8729L21.8463 15.5607ZM21.8463 8.43928L23.4155 8.12713V8.12713L21.8463 8.43928ZM15.5607 2.15372L15.2486 3.72297L15.5607 2.15372ZM8.43928 2.15372L8.75142 3.72297H8.75142L8.43928 2.15372ZM14.685 15.5404H13.085V17.1404H14.685V15.5404ZM14.685 8.65998V7.05998H13.085V8.65998H14.685ZM15.7269 15.5404V17.1404H17.3269V15.5404H15.7269ZM15.7269 12.513V10.913H14.1269V12.513H15.7269ZM18.4398 12.513V14.113H20.0398V12.513H18.4398ZM18.4398 11.6775H20.0398V10.0775H18.4398V11.6775ZM15.7269 11.6775H14.1269V13.2775H15.7269V11.6775ZM15.7269 9.50529V7.90529H14.1269V9.50529H15.7269ZM19 9.50529V11.1053H20.6V9.50529H19ZM19 8.65998H20.6V7.05998H19V8.65998ZM12.3451 8.65998V7.05998H10.7451V8.65998H12.3451ZM12.3451 15.5404H10.7451V17.1404H12.3451V15.5404ZM13.387 8.65998H14.987V7.05998H13.387V8.65998ZM13.387 15.5404V17.1404H14.987V15.5404H13.387ZM6.21524 15.216L5.38391 16.5831L5.38392 16.5831L6.21524 15.216ZM9.27213 15.3635L8.48397 13.9711L8.48397 13.9711L9.27213 15.3635ZM10.1371 14.528L11.731 14.3887L11.3203 9.68842L8.78724 13.669L10.1371 14.528ZM10.2256 15.5404L8.63164 15.6797L8.75927 17.1404H10.2256V15.5404ZM11.179 15.5404V17.1404H12.779V15.5404H11.179ZM11.179 11.8053H12.779V10.2053H11.179V11.8053ZM8.25972 11.8053V10.2053H6.65972V11.8053H8.25972ZM8.25972 12.6113H6.65972V14.2113H8.25972V12.6113ZM10.1273 12.6113L11.7206 12.7576L11.8809 11.0113H10.1273V12.6113ZM9.51786 14.1545L8.32759 13.0853L8.32253 13.0909L8.31753 13.0966L9.51786 14.1545ZM6.36268 14.0464L5.16494 15.1072L5.16494 15.1072L6.36268 14.0464ZM6.37251 10.2031L7.56929 11.2651L7.5693 11.2651L6.37251 10.2031ZM9.2623 9.81979L8.36184 11.1423L8.36184 11.1424L9.2623 9.81979ZM9.88154 10.6848L8.34311 11.1243L8.67466 12.2848H9.88154V10.6848ZM11.061 10.6848V12.2848H13.0812L12.6185 10.3183L11.061 10.6848ZM10.0388 9.11209L10.978 7.81671L10.978 7.81671L10.0388 9.11209ZM6.26439 9.00397L7.08496 10.3775L7.09016 10.3744L6.26439 9.00397ZM5.08488 13.9776L3.65734 14.7001H3.65734L5.08488 13.9776ZM3.6 12C3.6 10.0647 3.60775 9.33069 3.72297 8.75142L0.584461 8.12713C0.39225 9.09344 0.4 10.2181 0.4 12H3.6ZM3.72297 15.2486C3.60775 14.6693 3.6 13.9353 3.6 12H0.4C0.4 13.7819 0.39225 14.9066 0.584461 15.8729L3.72297 15.2486ZM8.75142 20.277C6.2126 19.772 4.22798 17.7874 3.72297 15.2486L0.584461 15.8729C1.34197 19.6811 4.3189 22.658 8.12713 23.4155L8.75142 20.277ZM12 20.4C10.0647 20.4 9.33069 20.3923 8.75142 20.277L8.12713 23.4155C9.09344 23.6077 10.2181 23.6 12 23.6V20.4ZM15.2486 20.277C14.6693 20.3923 13.9353 20.4 12 20.4V23.6C13.7819 23.6 14.9066 23.6077 15.8729 23.4155L15.2486 20.277ZM20.277 15.2486C19.772 17.7874 17.7874 19.772 15.2486 20.277L15.8729 23.4155C19.6811 22.658 22.658 19.6811 23.4155 15.8729L20.277 15.2486ZM20.4 12C20.4 13.9353 20.3923 14.6693 20.277 15.2486L23.4155 15.8729C23.6077 14.9066 23.6 13.7819 23.6 12H20.4ZM20.277 8.75142C20.3923 9.33069 20.4 10.0647 20.4 12H23.6C23.6 10.2181 23.6077 9.09344 23.4155 8.12713L20.277 8.75142ZM15.2486 3.72297C17.7874 4.22798 19.772 6.2126 20.277 8.75142L23.4155 8.12713C22.658 4.3189 19.6811 1.34197 15.8729 0.584461L15.2486 3.72297ZM12 3.6C13.9353 3.6 14.6693 3.60775 15.2486 3.72297L15.8729 0.584461C14.9066 0.39225 13.7819 0.4 12 0.4V3.6ZM8.75142 3.72297C9.33069 3.60775 10.0647 3.6 12 3.6V0.4C10.2181 0.4 9.09344 0.39225 8.12713 0.584461L8.75142 3.72297ZM3.72297 8.75142C4.22798 6.2126 6.2126 4.22798 8.75142 3.72297L8.12713 0.584461C4.3189 1.34197 1.34197 4.3189 0.584461 8.12713L3.72297 8.75142ZM16.285 15.5404V8.65998H13.085V15.5404H16.285ZM15.7269 13.9404H14.685V17.1404H15.7269V13.9404ZM14.1269 12.513V15.5404H17.3269V12.513H14.1269ZM18.4398 10.913H15.7269V14.113H18.4398V10.913ZM16.8398 11.6775V12.513H20.0398V11.6775H16.8398ZM15.7269 13.2775H18.4398V10.0775H15.7269V13.2775ZM14.1269 9.50529V11.6775H17.3269V9.50529H14.1269ZM19 7.90529H15.7269V11.1053H19V7.90529ZM17.4 8.65998V9.50529H20.6V8.65998H17.4ZM14.685 10.26H19V7.05998H14.685V10.26ZM10.7451 8.65998V15.5404H13.9451V8.65998H10.7451ZM13.387 7.05998H12.3451V10.26H13.387V7.05998ZM14.987 15.5404V8.65998H11.787V15.5404H14.987ZM12.3451 17.1404H13.387V13.9404H12.3451V17.1404ZM7.9157 14.0583C7.51737 14.0583 7.24673 13.9707 7.04657 13.849L5.38392 16.5831C6.15358 17.0511 7.01657 17.2583 7.9157 17.2583V14.0583ZM8.48397 13.9711C8.45362 13.9882 8.30025 14.0583 7.9157 14.0583V17.2583C8.64513 17.2583 9.39604 17.1319 10.0603 16.7559L8.48397 13.9711ZM8.78724 13.669C8.68842 13.8243 8.58721 13.9126 8.48397 13.9711L10.0603 16.7559C10.6517 16.4211 11.1271 15.9525 11.487 15.387L8.78724 13.669ZM11.8195 15.4011L11.731 14.3887L8.54318 14.6673L8.63164 15.6797L11.8195 15.4011ZM11.179 13.9404H10.2256V17.1404H11.179V13.9404ZM9.579 11.8053V15.5404H12.779V11.8053H9.579ZM8.25972 13.4053H11.179V10.2053H8.25972V13.4053ZM9.85972 12.6113V11.8053H6.65972V12.6113H9.85972ZM10.1273 11.0113H8.25972V14.2113H10.1273V11.0113ZM10.7081 15.2237C11.3362 14.5245 11.6378 13.6588 11.7206 12.7576L8.53398 12.465C8.49879 12.8481 8.39409 13.0112 8.32759 13.0853L10.7081 15.2237ZM7.9845 16.3344C8.96875 16.3344 9.98358 16.0459 10.7182 15.2124L8.31753 13.0966C8.33009 13.0823 8.33965 13.0828 8.31296 13.0929C8.27679 13.1066 8.17786 13.1344 7.9845 13.1344V16.3344ZM5.16494 15.1072C5.90779 15.9459 6.90363 16.3344 7.9845 16.3344V13.1344C7.7155 13.1344 7.63012 13.0642 7.56042 12.9855L5.16494 15.1072ZM4.15327 12.1297C4.15327 13.2062 4.4229 14.2694 5.16494 15.1072L7.56042 12.9855C7.48992 12.9059 7.35327 12.6913 7.35327 12.1297H4.15327ZM5.17573 9.14119C4.42996 9.98167 4.15327 11.0456 4.15327 12.1297H7.35327C7.35327 11.5755 7.48941 11.3551 7.56929 11.2651L5.17573 9.14119ZM8.07297 7.90526C6.97483 7.90526 5.94165 8.27801 5.17573 9.1412L7.5693 11.2651C7.62903 11.1978 7.72948 11.1053 8.07297 11.1053V7.90526ZM10.1628 8.49723C9.51975 8.05943 8.78316 7.90526 8.07297 7.90526V11.1053C8.33259 11.1053 8.38889 11.1608 8.36184 11.1423L10.1628 8.49723ZM11.42 10.2452C11.215 9.52789 10.7882 8.92309 10.1628 8.49723L8.36184 11.1424C8.36627 11.1454 8.36538 11.1453 8.36133 11.1413C8.35717 11.1373 8.35206 11.1316 8.34713 11.1247C8.34222 11.1178 8.33951 11.1127 8.33862 11.1108C8.33781 11.1091 8.33985 11.1129 8.34311 11.1243L11.42 10.2452ZM11.061 9.08476H9.88154V12.2848H11.061V9.08476ZM9.09966 10.4075C9.29317 10.5478 9.4285 10.7321 9.50358 11.0512L12.6185 10.3183C12.3791 9.30064 11.8329 8.43655 10.978 7.81671L9.09966 10.4075ZM8.07297 10.142C8.59578 10.142 8.90279 10.2647 9.09966 10.4075L10.978 7.81671C10.1264 7.19932 9.12283 6.94199 8.07297 6.94199V10.142ZM7.09016 10.3744C7.31359 10.2398 7.62098 10.142 8.07297 10.142V6.94199C7.13576 6.94199 6.23743 7.15219 5.43861 7.63353L7.09016 10.3744ZM6.51878 10.9915C6.66113 10.7136 6.84526 10.5207 7.08496 10.3775L5.44382 7.63041C4.67439 8.09007 4.07873 8.73596 3.67064 9.5327L6.51878 10.9915ZM6.28188 12.1198C6.28188 11.6313 6.37654 11.2692 6.51878 10.9915L3.67064 9.5327C3.26245 10.3296 3.08188 11.206 3.08188 12.1198H6.28188ZM6.51242 13.255C6.37672 12.9869 6.28188 12.6238 6.28188 12.1198H3.08188C3.08188 13.0313 3.25571 13.9067 3.65734 14.7001L6.51242 13.255ZM7.04657 13.849C6.82919 13.7168 6.65315 13.533 6.51242 13.255L3.65734 14.7001C4.05395 15.4837 4.63148 16.1255 5.38391 16.5831L7.04657 13.849Z" fill="#B4B4B3" mask="url(#path-1-inside-1_250_1223)"/>
</svg>
