<svg width="24" height="24" viewBox="0 0 24 24" fill="none" xmlns="http://www.w3.org/2000/svg">
<path d="M18.0002 2.19995C18.4421 2.19995 18.8002 2.55812 18.8002 2.99995V5.19995H21.0002C21.4421 5.19995 21.8002 5.55812 21.8002 5.99995C21.8002 6.44178 21.4421 6.79995 21.0002 6.79995H18.8002V8.99995C18.8002 9.44178 18.4421 9.79995 18.0002 9.79995C17.5584 9.79995 17.2002 9.44178 17.2002 8.99995V6.79995H15.0002C14.5584 6.79995 14.2002 6.44178 14.2002 5.99995C14.2002 5.55812 14.5584 5.19995 15.0002 5.19995H17.2002V2.99995C17.2002 2.55812 17.5584 2.19995 18.0002 2.19995Z" fill="#B4B4B3"/>
<path fill-rule="evenodd" clip-rule="evenodd" d="M3.8002 12C3.8002 8.51677 4.31318 6.56861 5.44125 5.44068C6.56934 4.31273 8.51765 3.79996 12.0007 3.79996C12.4425 3.79996 12.8007 3.44179 12.8007 2.99996C12.8007 2.55814 12.4425 2.19996 12.0007 2.19996C8.48412 2.19996 5.9322 2.6872 4.30995 4.30924C2.68767 5.93132 2.2002 8.48316 2.2002 12C2.2002 13.8649 2.34403 15.4367 2.70631 16.7378C3.2277 18.6103 4.20777 19.9317 5.81466 20.7453C7.36269 21.5292 9.41493 21.8 12.0007 21.8C13.8619 21.8 15.4355 21.6589 16.74 21.2961C18.8528 20.7084 20.2488 19.5359 21.0196 17.5658C21.5878 16.1133 21.8002 14.2691 21.8002 12C21.8002 11.5581 21.442 11.2 21.0002 11.2C20.5584 11.2 20.2002 11.5581 20.2002 12C20.2002 13.5165 20.1 14.7508 19.8875 15.7559L18.8196 14.688C18.4366 14.305 18.1148 13.9832 17.8297 13.7418C17.5316 13.4894 17.2205 13.2776 16.8445 13.1587C16.295 12.9849 15.7053 12.9849 15.1559 13.1587C14.7799 13.2776 14.4688 13.4894 14.1707 13.7418C13.8856 13.9832 13.5637 14.305 13.1807 14.6881L12.5002 15.3686L10.8197 13.6881C10.4367 13.305 10.1148 12.9832 9.82974 12.7418C9.5316 12.4894 9.22051 12.2776 8.8445 12.1587C8.29504 11.9849 7.70535 11.9849 7.15589 12.1587C6.77988 12.2776 6.46879 12.4894 6.17065 12.7418C5.88561 12.9832 5.56372 13.3051 5.18078 13.688L3.96671 14.9021C3.85377 14.0705 3.8002 13.1098 3.8002 12ZM15.8562 16.5016L18.2036 18.8489C17.8011 19.1673 17.3216 19.4201 16.7498 19.6182L13.6316 16.5C14.2465 15.8867 15.2421 15.8874 15.8562 16.5016Z" fill="#B4B4B3"/>
</svg>
