<svg width="24" height="24" viewBox="0 0 24 24" fill="none" xmlns="http://www.w3.org/2000/svg">
<path fill-rule="evenodd" clip-rule="evenodd" d="M4.3097 4.30947C5.93195 2.68743 8.48388 2.2002 12.0004 2.2002C15.5169 2.2002 18.0687 2.68742 19.6907 4.30952C21.3127 5.93161 21.7999 8.48345 21.7999 12.0002C21.7999 15.5226 21.2916 18.0724 19.6599 19.6928C18.0295 21.3119 15.4813 21.8002 12.0004 21.8002C8.51949 21.8002 5.97109 21.3119 4.34052 19.6929C2.70854 18.0724 2.19995 15.5227 2.19995 12.0002C2.19995 8.48339 2.68743 5.93155 4.3097 4.30947ZM10.6142 13.6362C10.6142 14.1598 11.0386 14.5843 11.5622 14.5843C12.0858 14.5843 12.5103 14.1598 12.5103 13.6362V13.4646C13.1273 13.4247 13.6847 13.2854 14.1824 13.0465C14.69 12.7977 15.0931 12.4493 15.3917 12.0014C15.6903 11.5436 15.8396 10.9862 15.8396 10.3293C15.8396 9.85157 15.76 9.41363 15.6007 9.01551C15.4415 8.60743 15.1976 8.25409 14.8691 7.9555C14.5506 7.65691 14.1426 7.42301 13.6449 7.2538C13.1572 7.0846 12.5799 7 11.9131 7C11.3656 7 10.873 7.0647 10.435 7.19409C10.007 7.31352 9.63878 7.48273 9.33023 7.70169C9.02169 7.92066 8.76788 8.16949 8.56882 8.44818C8.36976 8.72687 8.22046 9.01551 8.12093 9.3141C7.97782 9.79113 8.39635 10.195 8.89438 10.195H9.1386C9.57873 10.195 9.91507 9.8198 10.1514 9.44847C10.3007 9.21955 10.5147 9.04039 10.7933 8.911C11.082 8.77166 11.4403 8.70198 11.8683 8.70198C12.4655 8.70198 12.9432 8.8463 13.3015 9.13494C13.6598 9.42359 13.839 9.84162 13.839 10.389C13.839 10.9365 13.6499 11.3595 13.2717 11.6581C12.8935 11.9567 12.3012 12.106 11.495 12.106H10.6142V13.3451V13.6362ZM10.4798 16.7342C10.4798 17.2041 10.8608 17.5851 11.3308 17.5851H11.8832C12.3532 17.5851 12.7342 17.2041 12.7342 16.7342C12.7342 16.2642 12.3532 15.8832 11.8832 15.8832H11.3308C10.8608 15.8832 10.4798 16.2642 10.4798 16.7342Z" fill="#B4B4B3"/>
</svg>
