<svg width="24" height="24" viewBox="0 0 24 24" fill="none" xmlns="http://www.w3.org/2000/svg">
<g clip-path="url(#clip0_250_881)">
<path fill-rule="evenodd" clip-rule="evenodd" d="M13.1591 13.8311C13.3617 15.9956 12.3194 18.1817 10.3135 19.3398C7.56851 20.9246 4.05851 19.9841 2.47369 17.2392C0.888874 14.4942 1.82937 10.9842 4.57436 9.39936C6.58026 8.24125 8.99467 8.43165 10.7678 9.68929L18.6739 5.12475L21.5262 6.23915L20.4118 9.09155L18.691 8.98057L18.1659 10.9405L16.2059 10.4154L15.6807 12.3753L13.9279 11.7306L13.6098 13.571L13.1591 13.8311ZM7.29346 14.4566C7.77373 15.2884 7.48872 16.3521 6.65687 16.8324C5.82501 17.3126 4.76133 17.0276 4.28105 16.1958C3.80078 15.3639 4.0858 14.3002 4.91765 13.82C5.74951 13.3397 6.81319 13.6247 7.29346 14.4566Z" fill="#090908"/>
</g>
<defs>
<clipPath id="clip0_250_881">
<rect width="24" height="24" fill="white"/>
</clipPath>
</defs>
</svg>
