<svg width="25" height="24" viewBox="0 0 25 24" fill="none" xmlns="http://www.w3.org/2000/svg">
<g clip-path="url(#clip0_206_131)">
<path d="M23.2257 0.96146L13.8805 7.83262L15.5796 3.79493L23.2257 0.96146Z" fill="#E17726"/>
<path d="M23.2257 0.96146L13.8805 7.83262L15.5796 3.79493L23.2257 0.96146Z" stroke="#151614" stroke-width="0.25" stroke-linecap="round" stroke-linejoin="round"/>
<path d="M23.2257 0.96146L13.8805 7.83262L15.5796 3.79493L23.2257 0.96146Z" stroke="black" stroke-opacity="0.2" stroke-width="0.25" stroke-linecap="round" stroke-linejoin="round"/>
<path d="M23.2257 0.96146L13.8805 7.83262L15.5796 3.79493L23.2257 0.96146Z" stroke="black" stroke-opacity="0.2" stroke-width="0.25" stroke-linecap="round" stroke-linejoin="round"/>
<path d="M23.2257 0.96146L13.8805 7.83262L15.5796 3.79493L23.2257 0.96146Z" stroke="black" stroke-opacity="0.2" stroke-width="0.25" stroke-linecap="round" stroke-linejoin="round"/>
<path d="M23.2257 0.96146L13.8805 7.83262L15.5796 3.79493L23.2257 0.96146Z" stroke="black" stroke-opacity="0.2" stroke-width="0.25" stroke-linecap="round" stroke-linejoin="round"/>
<path d="M1.77434 0.96146L10.9779 7.90345L9.34956 3.79493L1.77434 0.96146Z" fill="#E27625" stroke="#E27625" stroke-width="0.25" stroke-linecap="round" stroke-linejoin="round"/>
<path d="M19.8982 16.9706L17.4203 20.7249L22.7301 22.2125L24.2168 17.0414L19.8982 16.9706Z" fill="#E27625" stroke="#E27625" stroke-width="0.25" stroke-linecap="round" stroke-linejoin="round"/>
<path d="M0.783188 17.0414L2.26991 22.2125L7.57965 20.7249L5.10177 16.9706L0.783188 17.0414Z" fill="#E27625" stroke="#E27625" stroke-width="0.25" stroke-linecap="round" stroke-linejoin="round"/>
<path d="M7.29642 10.5245L5.80969 12.7204L11.0486 12.9329L10.907 7.26599L7.29642 10.5245Z" fill="#E27625" stroke="#E27625" stroke-width="0.25" stroke-linecap="round" stroke-linejoin="round"/>
<path d="M17.7035 10.5245L14.0221 7.26599L13.8805 13.0038L19.1195 12.7913L17.7035 10.5245Z" fill="#E27625" stroke="#E27625" stroke-width="0.25" stroke-linecap="round" stroke-linejoin="round"/>
<path d="M7.57968 20.7249L10.7655 19.1665L8.00446 17.0414L7.57968 20.7249Z" fill="#E27625" stroke="#E27625" stroke-width="0.25" stroke-linecap="round" stroke-linejoin="round"/>
<path d="M14.2346 19.1665L17.4204 20.7249L16.9956 17.0414L14.2346 19.1665Z" fill="#E27625" stroke="#E27625" stroke-width="0.25" stroke-linecap="round" stroke-linejoin="round"/>
<path d="M17.4204 20.725L14.2346 19.1666L14.5177 21.2208V22.0709L17.4204 20.725Z" fill="#D5BFB2" stroke="#D5BFB2" stroke-width="0.25" stroke-linecap="round" stroke-linejoin="round"/>
<path d="M7.57968 20.7248L10.5531 22.1415V21.2915L10.8363 19.2372L7.57968 20.7248Z" fill="#D5BFB2" stroke="#D5BFB2" stroke-width="0.25" stroke-linecap="round" stroke-linejoin="round"/>
<path d="M10.5531 15.6954L7.93362 14.9162L9.77433 14.0662L10.5531 15.6954Z" fill="#233447" stroke="#233447" stroke-width="0.25" stroke-linecap="round" stroke-linejoin="round"/>
<path d="M14.3761 15.6954L15.1549 14.0662L16.9956 14.9162L14.3761 15.6954Z" fill="#233447" stroke="#233447" stroke-width="0.25" stroke-linecap="round" stroke-linejoin="round"/>
<path d="M7.57964 20.7249L8.00442 16.9706L5.10177 17.0414L7.57964 20.7249Z" fill="#CC6228" stroke="#CC6228" stroke-width="0.25" stroke-linecap="round" stroke-linejoin="round"/>
<path d="M16.9248 16.9706L17.3496 20.7249L19.8274 17.0414L16.9248 16.9706Z" fill="#CC6228" stroke="#CC6228" stroke-width="0.25" stroke-linecap="round" stroke-linejoin="round"/>
<path d="M19.1903 12.7912L13.9513 13.0037L14.4469 15.6955L15.2257 14.0662L17.0664 14.9163L19.1903 12.7912Z" fill="#CC6228" stroke="#CC6228" stroke-width="0.25" stroke-linecap="round" stroke-linejoin="round"/>
<path d="M7.93359 14.9163L9.77429 14.0663L10.5531 15.6955L11.0486 13.0037L5.80969 12.7912L7.93359 14.9163Z" fill="#CC6228" stroke="#CC6228" stroke-width="0.25" stroke-linecap="round" stroke-linejoin="round"/>
<path d="M5.80969 12.7912L8.00438 17.1122L7.93359 14.9871L5.80969 12.7912Z" fill="#E27525" stroke="#E27525" stroke-width="0.25" stroke-linecap="round" stroke-linejoin="round"/>
<path d="M17.0664 14.9163L16.9956 17.0414L19.1903 12.7204L17.0664 14.9163Z" fill="#E27525" stroke="#E27525" stroke-width="0.25" stroke-linecap="round" stroke-linejoin="round"/>
<path d="M11.0487 13.0038L10.5531 15.6956L11.1903 18.8832L11.3319 14.7039L11.0487 13.0038Z" fill="#E27525" stroke="#E27525" stroke-width="0.25" stroke-linecap="round" stroke-linejoin="round"/>
<path d="M13.8805 13.0038L13.5974 14.7039L13.7389 18.8832L14.3761 15.6956L13.8805 13.0038Z" fill="#E27525" stroke="#E27525" stroke-width="0.25" stroke-linecap="round" stroke-linejoin="round"/>
<path d="M14.3761 15.6955L13.7389 18.8832L14.1637 19.1665L16.9247 17.0414L16.9955 14.9163L14.3761 15.6955Z" fill="#F5841F" stroke="#F5841F" stroke-width="0.25" stroke-linecap="round" stroke-linejoin="round"/>
<path d="M7.93362 14.9163L8.00442 17.0414L10.7655 19.1665L11.1903 18.8831L10.5531 15.6955L7.93362 14.9163Z" fill="#F5841F" stroke="#F5841F" stroke-width="0.25" stroke-linecap="round" stroke-linejoin="round"/>
<path d="M14.4469 22.1417V21.2917L14.2345 21.0792H10.6947L10.4823 21.2917V22.1417L7.57968 20.725L8.64163 21.575L10.6947 22.9917H14.3053L16.4292 21.575L17.4204 20.725L14.4469 22.1417Z" fill="#C0AC9D" stroke="#C0AC9D" stroke-width="0.25" stroke-linecap="round" stroke-linejoin="round"/>
<path d="M14.2345 19.1665L13.8097 18.8831H11.1903L10.7655 19.1665L10.4823 21.2208L10.6947 21.0082H14.2345L14.4469 21.2208L14.2345 19.1665Z" fill="#161616" stroke="#161616" stroke-width="0.25" stroke-linecap="round" stroke-linejoin="round"/>
<path d="M23.5797 8.3285L24.3585 4.50332L23.1549 0.961487L14.2346 7.62013L17.7036 10.5244L22.5885 11.9412L23.6505 10.6661L23.1549 10.3828L23.9337 9.6744L23.3673 9.24938L24.1461 8.68268L23.5797 8.3285Z" fill="#763E1A" stroke="#763E1A" stroke-width="0.25" stroke-linecap="round" stroke-linejoin="round"/>
<path d="M0.570793 4.50329L1.34955 8.32848L0.853979 8.68266L1.63274 9.24935L1.06637 9.67437L1.84513 10.3827L1.34955 10.7369L2.4115 12.012L7.29645 10.5952L10.7655 7.69095L1.77433 0.96146L0.570793 4.50329Z" fill="#763E1A" stroke="#763E1A" stroke-width="0.25" stroke-linecap="round" stroke-linejoin="round"/>
<path d="M22.5885 11.9411L17.7036 10.5244L19.1903 12.7203L16.9956 17.0413L19.8983 16.9705H24.2168L22.5885 11.9411Z" fill="#F5841F" stroke="#F5841F" stroke-width="0.25" stroke-linecap="round" stroke-linejoin="round"/>
<path d="M7.29645 10.5244L2.41149 11.9411L0.783173 16.9705H5.10176L8.00441 17.0413L5.80972 12.7203L7.29645 10.5244Z" fill="#F5841F" stroke="#F5841F" stroke-width="0.25" stroke-linecap="round" stroke-linejoin="round"/>
<path d="M13.8805 13.0036L14.1637 7.62004L15.5796 3.79486H9.27872L10.6946 7.62004L10.9778 13.0036L11.1194 14.7037V18.8831H13.7389V14.7037L13.8805 13.0036Z" fill="#F5841F" stroke="#F5841F" stroke-width="0.25" stroke-linecap="round" stroke-linejoin="round"/>
</g>
<defs>
<clipPath id="clip0_206_131">
<rect width="24" height="24" fill="white" transform="translate(0.5)"/>
</clipPath>
</defs>
</svg>
