<svg width="24" height="24" viewBox="0 0 24 24" fill="none" xmlns="http://www.w3.org/2000/svg">
<rect width="24" height="24" fill="#1E1E1E"/>
<g id="Chats" clip-path="url(#clip0_0_1)">
<rect width="1440" height="1088" transform="translate(-1044 -27)" fill="white"/>
<g id="Menu. Light." clip-path="url(#clip1_0_1)">
<rect width="1440" height="75" transform="translate(-1044 -27)" fill="#FCFCFD" fill-opacity="0.7"/>
<g id="bell-notification">
<path id="Vector" d="M18.1336 11C18.7155 16.3755 21 18 21 18H3C3 18 6 15.8667 6 8.4C6 6.70261 6.63214 5.07475 7.75736 3.87452C8.88258 2.67428 10.4087 2 12 2C12.3373 2 12.6717 2.0303 13 2.08949" stroke="#898989" stroke-width="1.5" stroke-linecap="round" stroke-linejoin="round"/>
<path id="Vector_2" d="M19 8C20.6569 8 22 6.65685 22 5C22 3.34315 20.6569 2 19 2C17.3431 2 16 3.34315 16 5C16 6.65685 17.3431 8 19 8Z" fill="#638A4E" stroke="#638A4E" stroke-width="1.5" stroke-linecap="round" stroke-linejoin="round"/>
<path id="Vector_3" d="M13.73 21C13.5542 21.3031 13.3019 21.5547 12.9982 21.7295C12.6946 21.9044 12.3504 21.9965 12 21.9965C11.6496 21.9965 11.3054 21.9044 11.0018 21.7295C10.6982 21.5547 10.4458 21.3031 10.27 21" stroke="#898989" stroke-width="1.5" stroke-linecap="round" stroke-linejoin="round"/>
</g>
</g>
</g>
<defs>
<clipPath id="clip0_0_1">
<rect width="1440" height="1088" fill="white" transform="translate(-1044 -27)"/>
</clipPath>
<clipPath id="clip1_0_1">
<rect width="1440" height="75" fill="white" transform="translate(-1044 -27)"/>
</clipPath>
</defs>
</svg>
