<svg width="16" height="17" viewBox="0 0 16 17" fill="none" xmlns="http://www.w3.org/2000/svg">
<g clip-path="url(#clip0_180_1161)">
<path d="M8 8.15625C8.79113 8.15625 9.56449 7.92166 10.2223 7.48213C10.8801 7.0426 11.3928 6.41789 11.6955 5.68699C11.9983 4.95608 12.0775 4.15181 11.9231 3.37589C11.7688 2.59997 11.3878 1.88723 10.8284 1.32782C10.269 0.768415 9.55629 0.387452 8.78036 0.233111C8.00444 0.0787698 7.20017 0.157983 6.46927 0.460734C5.73836 0.763484 5.11365 1.27617 4.67412 1.93397C4.2346 2.59177 4 3.36513 4 4.15625C4.00106 5.21679 4.42283 6.23359 5.17274 6.98351C5.92266 7.73343 6.93946 8.15519 8 8.15625ZM8 1.48959C8.52742 1.48959 9.04299 1.64598 9.48152 1.939C9.92005 2.23202 10.2618 2.64849 10.4637 3.13576C10.6655 3.62303 10.7183 4.15921 10.6154 4.67649C10.5125 5.19378 10.2586 5.66893 9.88562 6.04187C9.51268 6.41481 9.03752 6.66879 8.52024 6.77168C8.00296 6.87457 7.46678 6.82176 6.97951 6.61993C6.49224 6.4181 6.07577 6.0763 5.78275 5.63777C5.48973 5.19924 5.33333 4.68367 5.33333 4.15625C5.33333 3.44901 5.61428 2.77073 6.11438 2.27063C6.61448 1.77054 7.29276 1.48959 8 1.48959Z" fill="#638A4E"/>
<path d="M8 9.49023C6.40924 9.492 4.88414 10.1247 3.75931 11.2495C2.63447 12.3744 2.00176 13.8995 2 15.4902C2 15.667 2.07024 15.8366 2.19526 15.9616C2.32029 16.0867 2.48986 16.1569 2.66667 16.1569C2.84348 16.1569 3.01305 16.0867 3.13807 15.9616C3.2631 15.8366 3.33333 15.667 3.33333 15.4902C3.33333 14.2526 3.825 13.0656 4.70017 12.1904C5.57534 11.3152 6.76232 10.8236 8 10.8236C9.23768 10.8236 10.4247 11.3152 11.2998 12.1904C12.175 13.0656 12.6667 14.2526 12.6667 15.4902C12.6667 15.667 12.7369 15.8366 12.8619 15.9616C12.987 16.0867 13.1565 16.1569 13.3333 16.1569C13.5101 16.1569 13.6797 16.0867 13.8047 15.9616C13.9298 15.8366 14 15.667 14 15.4902C13.9982 13.8995 13.3655 12.3744 12.2407 11.2495C11.1159 10.1247 9.59076 9.492 8 9.49023Z" fill="#638A4E"/>
</g>
<defs>
<clipPath id="clip0_180_1161">
<rect width="16" height="16" fill="white" transform="translate(0 0.15625)"/>
</clipPath>
</defs>
</svg>
