<svg width="24" height="24" viewBox="0 0 24 24" fill="none" xmlns="http://www.w3.org/2000/svg">
<path fill-rule="evenodd" clip-rule="evenodd" d="M12.0003 2.2002C9.35034 2.2002 7.20105 4.3479 7.20027 6.99875L7.20027 7.0002L7.20028 6.99731L7.20027 6.99875C7.19152 9.6408 9.32718 11.7907 11.9691 11.8002L11.972 11.8002H12.0003C14.6508 11.8002 16.8002 9.65071 16.8002 7.0002C16.8002 4.34868 14.6507 2.2002 12.0003 2.2002Z" fill="#151614"/>
<path d="M6.65905 14.6024C8.07211 13.7375 9.96934 13.2002 12.0002 13.2002C14.0198 13.2002 15.916 13.7322 17.331 14.5912C18.7164 15.4321 19.8002 16.6984 19.8002 18.2109C19.8002 18.9822 19.512 19.6329 19.0103 20.1424C18.5285 20.6317 17.8785 20.9637 17.1741 21.1959C15.7721 21.6581 13.9158 21.8002 12.0002 21.8002C10.0964 21.8002 8.24097 21.6635 6.83727 21.2074C6.13227 20.9783 5.47993 20.6496 4.9957 20.1625C4.49106 19.6549 4.2002 19.0043 4.2002 18.2311C4.2002 16.7214 5.27472 15.4498 6.65905 14.6024Z" fill="#151614"/>
</svg>
