<svg width="24" height="24" viewBox="0 0 24 24" fill="none" xmlns="http://www.w3.org/2000/svg">
<g id="Swap">
<path id="Union" fill-rule="evenodd" clip-rule="evenodd" d="M12 2.19995C12.4418 2.19995 12.8 2.55812 12.8 2.99995V7.1999H11.2V2.99995C11.2 2.55812 11.5581 2.19995 12 2.19995ZM7.99995 7.19995H11.2V13.0686L9.56564 11.4343C9.25322 11.1218 8.74669 11.1218 8.43427 11.4343C8.12185 11.7467 8.12185 12.2532 8.43427 12.5656L11.4343 15.5656C11.7467 15.8781 12.2532 15.8781 12.5656 15.5656L15.5656 12.5656C15.8781 12.2532 15.8781 11.7467 15.5656 11.4343C15.2532 11.1218 14.7467 11.1218 14.4343 11.4343L12.8 13.0686V7.19995H16C17.8957 7.19995 19.4272 7.723 20.4441 9.03113C21.4228 10.2902 21.7999 12.1263 21.7999 14.4539C21.7999 16.7761 21.4266 18.7425 19.8175 20.0522C18.2701 21.3116 15.7625 21.8 12 21.8C8.23742 21.8 5.72983 21.3116 4.18245 20.0522C2.57333 18.7425 2.19995 16.7761 2.19995 14.4539C2.19995 12.1263 2.57713 10.2902 3.55584 9.03113C4.57272 7.723 6.10418 7.19995 7.99995 7.19995Z" fill="#676766"/>
</g>
</svg>
