<svg width="24" height="24" viewBox="0 0 24 24" fill="none" xmlns="http://www.w3.org/2000/svg">
<path fill-rule="evenodd" clip-rule="evenodd" d="M12.0003 2.19922C9.35034 2.19922 7.20105 4.34692 7.20027 6.99778L7.20027 6.99922L7.20028 6.99633L7.20027 6.99778C7.19152 9.63983 9.32718 11.7897 11.9691 11.7992L11.972 11.7992H12.0003C14.6508 11.7992 16.8002 9.64974 16.8002 6.99922C16.8002 4.3477 14.6507 2.19922 12.0003 2.19922Z" fill="#A6D000"/>
<path d="M6.65905 14.6015C8.07211 13.7365 9.96934 13.1992 12.0002 13.1992C14.0198 13.1992 15.916 13.7313 17.331 14.5902C18.7164 15.4312 19.8002 16.6975 19.8002 18.21C19.8002 18.9812 19.512 19.6319 19.0103 20.1414C18.5285 20.6307 17.8785 20.9627 17.1741 21.1949C15.7721 21.6571 13.9158 21.7992 12.0002 21.7992C10.0964 21.7992 8.24097 21.6625 6.83727 21.2064C6.13227 20.9773 5.47993 20.6486 4.9957 20.1615C4.49106 19.6539 4.2002 19.0033 4.2002 18.2301C4.2002 16.7204 5.27472 15.4488 6.65905 14.6015Z" fill="#A6D000"/>
</svg>
