<svg width="24" height="24" viewBox="0 0 24 24" fill="none" xmlns="http://www.w3.org/2000/svg">
<path fill-rule="evenodd" clip-rule="evenodd" d="M12.0005 2.20001C6.58798 2.19974 2.20001 6.58748 2.20001 12C2.20001 17.4125 6.58798 21.8003 12.0005 21.8C17.4128 21.7997 21.8 17.4123 21.8 12C21.8 6.58776 17.4128 2.20029 12.0005 2.20001ZM10.7876 5.36232C11.1679 4.71002 10.7086 3.86579 9.97678 4.05151C9.76634 4.10492 9.59322 4.24021 9.48197 4.42665C8.2881 6.42745 7.55264 8.73401 7.4212 11.2H4.63978C4.1853 11.2 3.80001 11.5455 3.80001 12C3.80001 12.4545 4.1853 12.8 4.63978 12.8H7.4212C7.55264 15.266 8.2881 17.5726 9.48199 19.5734C9.59324 19.7598 9.76635 19.8951 9.97679 19.9485C10.7086 20.1342 11.1679 19.29 10.7876 18.6377C9.77703 16.9042 9.1504 14.9198 9.02375 12.8H14.9761C14.8495 14.9199 14.2229 16.9042 13.2123 18.6378C12.832 19.29 13.2913 20.1343 14.0231 19.9486C14.2336 19.8952 14.4067 19.7599 14.5179 19.5734C15.7118 17.5726 16.4472 15.266 16.5787 12.8H19.3602C19.8147 12.8 20.2 12.4545 20.2 12C20.2 11.5455 19.8147 11.2 19.3602 11.2H16.5787C16.4472 8.73399 15.7118 6.42742 14.5179 4.42661C14.4067 4.24016 14.2336 4.10487 14.0231 4.05147C13.2913 3.86577 12.832 4.70998 13.2123 5.36226C14.2229 7.09577 14.8495 9.08015 14.9761 11.2H9.02375C9.15039 9.08018 9.77702 7.09583 10.7876 5.36232Z" fill="#B4B4B3"/>
</svg>
