<svg width="40" height="40" viewBox="0 0 40 40" fill="none" xmlns="http://www.w3.org/2000/svg">
<rect width="40" height="40" rx="20" fill="#A6D000"/>
<path d="M12.8639 13.842C10.7689 13.3707 8.59846 14.6515 8.29291 15.7427C6.09289 17.1045 5.89242 19.7582 6.06718 20.9148C5.78338 21.1113 5.05863 21.8445 4.43011 23.2063C4.55011 24.0857 5.69511 26.1525 9.49238 26.1525C13.2897 26.1525 15.9446 24.7121 20.2149 24.7121C24.4851 24.7121 27.1405 26.1525 30.9377 26.1525C34.735 26.1525 35.88 24.0857 36 23.2063C35.3715 21.8445 34.6468 21.1112 34.3629 20.9148C34.5377 19.7582 34.3372 17.1045 32.1372 15.7427C31.8317 14.6515 29.6612 13.3707 27.5662 13.842C24.9475 14.4313 22.3754 15.7427 20.2149 15.7427C18.0543 15.7427 15.4827 14.4313 12.8639 13.842Z" fill="white"/>
<path d="M16.0996 21.1237C14.1785 15.3099 10.8901 15.2532 9.0866 15.9515C10.3657 15.9515 11.7564 17.3238 11.6079 19.0099C11.4891 20.3589 9.39151 19.572 8.35758 19.0099C7.83641 19.6844 8.07044 22.0889 8.2876 23.1479C11.508 24.8782 15.3655 22.9589 16.0996 21.1237Z" fill="#151614"/>
<path d="M24.375 21.1237C26.2961 15.3099 29.5845 15.2532 31.388 15.9515C30.1089 15.9515 28.7182 17.3238 28.8667 19.0099C28.9855 20.3589 31.0831 19.572 32.117 19.0099C32.6382 19.6844 32.4042 22.0889 32.187 23.1479C28.9666 24.8782 25.1091 22.9589 24.375 21.1237Z" fill="#151614"/>
</svg>
