<svg width="122" height="89" viewBox="0 0 122 89" fill="none" xmlns="http://www.w3.org/2000/svg">
<path d="M30.1433 30.9188C31.8621 32.3752 33.3983 32.019 33.9516 31.6589C34.5962 31.5167 35.927 30.6706 36.0929 28.4239C36.2588 26.1772 35.3964 19.1335 34.9444 15.8925C34.8212 15.2844 34.4053 13.8523 33.7268 12.9889C32.8787 11.9097 30.644 7.99783 35.0488 6.34864C38.5727 5.02928 40.6569 8.85146 40.207 10.2716C39.7571 11.6917 39.1095 12.4141 38.6133 14.8487C38.117 17.2834 37.6166 23.1141 39.5852 26.9594C40.6191 28.3237 43.546 30.4345 46.983 27.964C50.42 25.4936 51.31 22.9829 51.3254 22.0363C51.673 20.5051 53.1514 17.6586 56.2843 18.522C59.4172 19.3853 59.3243 22.3106 58.8862 23.6653C58.6468 24.3924 57.445 25.8926 54.5532 26.076C50.9384 26.3054 44.9173 32.4754 46.3719 41.7282C46.4244 43.4348 45.4939 47.3395 41.3512 49.3049C37.0458 50.8821 33.6086 48.809 32.4281 47.5754C26.848 40.0526 18.227 40.0226 15.5298 42.4401C13.3721 44.3741 11.4598 44.1798 10.7733 43.8409C9.50002 43.2039 7.34844 41.2198 8.9285 38.3801C10.5086 35.5405 13.5751 36.4811 14.9108 37.3064C15.5967 37.9589 18.0114 39.0839 22.1824 38.3639C26.3535 37.644 26.8994 34.0769 26.651 32.3833C25.2881 28.2839 20.7786 24.5541 18.6942 23.2016C16.6098 21.8491 15.6407 21.8046 14.3125 21.1302C12.9843 20.4557 11.7189 16.2902 15.1298 14.7015C19.3934 12.7157 20.6172 17.0514 20.7926 18.4128C20.9329 19.5019 21.6628 20.8023 22.0102 21.3163C24.0051 23.9103 28.4246 29.4625 30.1433 30.9188Z" fill="#A6D000"/>
<path d="M85.9385 52.7128C85.2441 54.8468 86.1519 56.1288 86.6926 56.5031C87.0669 57.0438 88.3489 57.9515 90.4828 57.2571C92.6168 56.5627 98.7855 53.1108 101.603 51.4716C102.117 51.1287 103.281 50.2051 103.821 49.2539C104.496 48.065 107.26 44.5291 110.442 47.9682C112.987 50.7194 110.249 54.0826 108.77 54.2034C107.291 54.3243 106.381 53.9998 103.949 54.4605C101.517 54.9213 95.9529 56.6591 93.1502 59.9245C92.2824 61.3923 91.4403 64.887 95.0143 67.1239C98.5883 69.3609 101.239 69.2345 102.117 68.8916C103.66 68.6346 106.842 68.9239 107.228 72.138C107.613 75.352 104.881 76.3697 103.467 76.4768C102.707 76.5303 100.87 75.9881 99.6103 73.3912C98.0354 70.145 90.0759 66.921 82.0938 71.752C80.5402 72.4442 76.5892 73.059 73.2147 69.981C70.1367 66.6064 70.7515 62.6555 71.4436 61.1019C76.2747 53.1198 73.0506 45.1603 69.8045 43.5854C67.2075 42.3255 66.6654 40.4891 66.7189 39.7284C66.826 38.3142 67.8437 35.5822 71.0577 35.9679C74.2717 36.3535 74.5611 39.5355 74.304 41.0783C73.9612 41.9568 73.8348 44.6073 76.0717 48.1813C78.3087 51.7554 81.8034 50.9132 83.2711 50.0454C86.5365 47.2427 88.2744 41.6783 88.7352 39.2464C89.1959 36.8146 88.8714 35.9043 88.9922 34.4253C89.1131 32.9464 92.4763 30.2086 95.2275 32.7541C98.6665 35.936 95.1307 38.6997 93.9417 39.3748C92.9905 39.9149 92.0669 41.0783 91.724 41.5925C90.0849 44.4102 86.633 50.5789 85.9385 52.7128Z" fill="#A6D000"/>
</svg>
