<svg width="160" height="124" viewBox="0 0 160 124" fill="none" xmlns="http://www.w3.org/2000/svg">
<path d="M70.5302 61.2326C73.53 67.1266 78.0933 67.9065 80 67.5596C81.9066 67.9065 86.4699 67.1266 89.4697 61.2326C92.4695 55.3387 98.1311 35.2903 100.587 26.0028C100.944 24.2168 101.444 19.8677 100.587 16.76C99.5161 12.8753 97.9071 -0.252056 111.704 0.283759C122.742 0.71241 124.045 13.4261 121.215 16.76C118.385 20.0938 115.812 21.3144 111.704 27.3424C107.597 33.3703 99.6226 48.5874 100.587 61.2326C101.837 66.0996 107.365 75.137 119.474 72.3508C131.584 69.5645 136.843 63.7777 137.96 61.2326C140.639 57.4819 147.873 51.454 155.374 57.348C162.876 63.2419 159.303 71.0559 156.579 74.2261C155.106 75.9229 150.149 78.6198 142.112 75.8336C132.065 72.3508 108.76 82.219 102.194 108.92C100.398 113.6 93.4464 123.115 80 123.732C66.5535 123.115 59.6014 113.6 57.8062 108.92C51.2398 82.219 27.9345 72.3508 17.888 75.8336C9.85081 78.6198 4.89418 75.9229 3.42052 74.2261C0.696623 71.0559 -2.87582 63.2419 4.62558 57.348C12.127 51.454 19.3609 57.4819 22.0402 61.2326C23.1565 63.7777 28.4164 69.5645 40.5258 72.3508C52.6352 75.137 58.1628 66.0996 59.413 61.2326C60.3773 48.5874 52.4032 33.3703 48.2956 27.3424C44.188 21.3144 41.6147 20.0938 38.7846 16.76C35.9545 13.4261 37.2578 0.71241 48.2956 0.283759C62.0928 -0.252056 60.4838 12.8753 59.413 16.76C58.5564 19.8677 59.0561 24.2168 59.413 26.0028C61.8688 35.2903 67.5304 55.3387 70.5302 61.2326Z" fill="url(#paint0_linear_4_730)"/>
<defs>
<linearGradient id="paint0_linear_4_730" x1="47.7362" y1="23.746" x2="80.0006" y2="115.255" gradientUnits="userSpaceOnUse">
<stop stop-color="#638A4F"/>
<stop offset="1" stop-color="#4C6A3D"/>
</linearGradient>
</defs>
</svg>
