<svg width="44" height="44" viewBox="0 0 44 44" fill="none" xmlns="http://www.w3.org/2000/svg">
<circle cx="22" cy="22" r="22" fill="url(#paint0_linear_158_1010)"/>
<path d="M14.2913 15.6409C12.0247 15.1309 9.6766 16.5167 9.34603 17.6972C6.9659 19.1704 6.74902 22.0414 6.93809 23.2928C6.63104 23.5053 5.84696 24.2986 5.16699 25.7718C5.29681 26.7232 6.53555 28.9592 10.6437 28.9592C14.7519 28.9592 17.6242 27.4009 22.244 27.4009C26.8638 27.4009 29.7366 28.9592 33.8448 28.9592C37.953 28.9592 39.1917 26.7232 39.3215 25.7718C38.6415 24.2985 37.8575 23.5052 37.5504 23.2928C37.7395 22.0414 37.5226 19.1704 35.1425 17.6972C34.8119 16.5167 32.4638 15.1309 30.1972 15.6409C27.3641 16.2784 24.5814 17.6972 22.244 17.6972C19.9066 17.6972 17.1244 16.2784 14.2913 15.6409Z" fill="white" stroke="black" stroke-width="0.5"/>
<path d="M17.793 23.5188C15.7146 17.2291 12.157 17.1677 10.2058 17.9232C11.5896 17.9232 13.0942 19.4078 12.9335 21.232C12.805 22.6913 10.5357 21.8401 9.41713 21.232C8.85329 21.9617 9.10649 24.5631 9.34142 25.7087C12.8255 27.5807 16.9987 25.5043 17.793 23.5188Z" fill="black" stroke="white" stroke-width="0.25"/>
<path d="M26.7442 23.5188C28.8225 17.2291 32.3801 17.1677 34.3313 17.9232C32.9475 17.9232 31.4429 19.4078 31.6036 21.232C31.7321 22.6913 34.0014 21.8401 35.12 21.232C35.6838 21.9617 35.4306 24.5631 35.1957 25.7087C31.7116 27.5807 27.5384 25.5043 26.7442 23.5188Z" fill="black" stroke="white" stroke-width="0.25"/>
<defs>
<linearGradient id="paint0_linear_158_1010" x1="22" y1="0" x2="22" y2="44" gradientUnits="userSpaceOnUse">
<stop stop-color="#62884E"/>
<stop offset="1" stop-color="#4B683C"/>
</linearGradient>
</defs>
</svg>
