<svg width="30" height="30" viewBox="0 0 30 30" fill="none" xmlns="http://www.w3.org/2000/svg">
<circle cx="15" cy="15" r="15" fill="url(#paint0_linear_88_2)"/>
<path d="M9.74453 10.6642C8.19918 10.3165 6.59817 11.2613 6.37278 12.0662C4.74997 13.0707 4.60209 15.0282 4.731 15.8814C4.52165 16.0262 3.98705 16.5671 3.52344 17.5716C3.61195 18.2203 4.45654 19.7448 7.25756 19.7448C10.0586 19.7448 12.017 18.6824 15.1669 18.6824C18.3167 18.6824 20.2755 19.7448 23.0765 19.7448C25.8775 19.7448 26.7221 18.2203 26.8106 17.5716C26.347 16.5671 25.8124 16.0262 25.603 15.8814C25.732 15.0282 25.5841 13.0707 23.9613 12.0662C23.7359 11.2613 22.1349 10.3165 20.5895 10.6642C18.6578 11.0988 16.7606 12.0662 15.1669 12.0662C13.5732 12.0662 11.6762 11.0988 9.74453 10.6642Z" fill="white" stroke="black" stroke-width="0.5"/>
<path d="M12.1317 16.0354C10.7147 11.747 8.28907 11.7051 6.9587 12.2203C7.90221 12.2202 8.92803 13.2325 8.81849 14.4763C8.73086 15.4713 7.18362 14.8908 6.42095 14.4763C6.03651 14.9738 6.20915 16.7475 6.36933 17.5286C8.74485 18.8049 11.5902 17.3892 12.1317 16.0354Z" fill="black" stroke="white" stroke-width="0.25"/>
<path d="M18.235 16.0354C19.652 11.747 22.0776 11.7051 23.408 12.2203C22.4645 12.2202 21.4387 13.2325 21.5482 14.4763C21.6358 15.4713 23.1831 14.8908 23.9457 14.4763C24.3302 14.9738 24.1576 16.7475 23.9974 17.5286C21.6218 18.8049 18.7765 17.3892 18.235 16.0354Z" fill="black" stroke="white" stroke-width="0.25"/>
<defs>
<linearGradient id="paint0_linear_88_2" x1="15" y1="0" x2="15" y2="30" gradientUnits="userSpaceOnUse">
<stop stop-color="#62884E"/>
<stop offset="1" stop-color="#4B683C"/>
</linearGradient>
</defs>
</svg>
