<svg width="247" height="297" viewBox="0 0 247 297" fill="none" xmlns="http://www.w3.org/2000/svg">
<path fill-rule="evenodd" clip-rule="evenodd" d="M0 107.067V97.5208L167.163 297H159.164L0 107.067ZM0 132.523V122.977L145.831 297H137.832L0 132.523ZM0 157.978V148.432L124.499 297H116.5L0 157.978ZM0 183.434V173.888L103.167 297H95.1679L0 183.434ZM0 208.89V199.344L81.8355 297H73.836L0 208.89ZM0 234.346V224.8L60.5035 297H52.504L0 234.346ZM0 259.802V250.256L39.1716 297H31.172L0 259.802ZM0 285.258V275.712L17.8396 297H9.8401L0 285.258ZM180.496 297L0 81.6109V72.0649L188.495 297H180.496ZM201.828 297L0 56.155V46.609L209.827 297H201.828ZM223.16 297L0 30.6992V21.1533L231.159 297H223.16ZM244.492 297L0 5.24336V0L3.60554 0L247 290.447V297H244.492ZM247 274.538L16.938 0L24.9375 0L247 264.992V274.538ZM247 249.082L38.2699 0H46.2694L247 239.536V249.082ZM247 223.626L59.6019 0H67.6014L247 214.08V223.626ZM247 198.17L80.9338 0L88.9334 0L247 188.624V198.17ZM247 172.714L102.266 0H110.265L247 163.168V172.714ZM247 147.258L123.598 0H131.597L247 137.712V147.258ZM247 121.803L144.93 0L152.929 0L247 112.257V121.803ZM247 96.3467L166.262 0H174.261L247 86.8007V96.3467ZM247 70.8909L187.594 0L195.593 0L247 61.3449V70.8909ZM247 35.889V45.435L208.926 0H216.925L247 35.889ZM247 10.4333V19.9792L230.257 0H238.257L247 10.4333Z" fill="#FEB03B" fill-opacity="0.15"/>
</svg>
