<svg width="126" height="28" viewBox="0 0 126 28" fill="none" xmlns="http://www.w3.org/2000/svg">
<path d="M10.8008 6.18164C8.1178 5.57797 5.3382 7.21831 4.9469 8.61571C2.12944 10.3597 1.87271 13.7582 2.09652 15.2395C1.73306 15.491 0.804909 16.43 0 18.174C0.153672 19.3002 1.62002 21.947 6.48301 21.947C11.346 21.947 14.7461 20.1024 20.2148 20.1024C25.6834 20.1024 29.0841 21.947 33.9471 21.947C38.8101 21.947 40.2764 19.3002 40.4301 18.174C39.6252 16.43 38.697 15.491 38.3336 15.2394C38.5574 13.7582 38.3006 10.3597 35.4832 8.6157C35.0919 7.21829 32.3123 5.57795 29.6293 6.18163C26.2756 6.93623 22.9817 8.61571 20.2148 8.61571C17.4479 8.61571 14.1545 6.93624 10.8008 6.18164Z" fill="#A6D000"/>
<path d="M14.9446 15.5069C12.4844 8.06146 8.27317 7.98879 5.96345 8.88313C7.60153 8.88311 9.38251 10.6405 9.19233 12.7999C9.04018 14.5274 6.35394 13.5197 5.02983 12.7999C4.36239 13.6636 4.66211 16.743 4.94021 18.0992C9.06448 20.3151 14.0045 17.8572 14.9446 15.5069Z" fill="#151614"/>
<path d="M14.9446 15.5069C12.4844 8.06146 8.27317 7.98879 5.96345 8.88313C7.60153 8.88311 9.38251 10.6405 9.19233 12.7999C9.04018 14.5274 6.35394 13.5197 5.02983 12.7999C4.36239 13.6636 4.66211 16.743 4.94021 18.0992C9.06448 20.3151 14.0045 17.8572 14.9446 15.5069Z" fill="black" fill-opacity="0.2"/>
<path d="M14.9446 15.5069C12.4844 8.06146 8.27317 7.98879 5.96345 8.88313C7.60153 8.88311 9.38251 10.6405 9.19233 12.7999C9.04018 14.5274 6.35394 13.5197 5.02983 12.7999C4.36239 13.6636 4.66211 16.743 4.94021 18.0992C9.06448 20.3151 14.0045 17.8572 14.9446 15.5069Z" fill="black" fill-opacity="0.2"/>
<path d="M14.9446 15.5069C12.4844 8.06146 8.27317 7.98879 5.96345 8.88313C7.60153 8.88311 9.38251 10.6405 9.19233 12.7999C9.04018 14.5274 6.35394 13.5197 5.02983 12.7999C4.36239 13.6636 4.66211 16.743 4.94021 18.0992C9.06448 20.3151 14.0045 17.8572 14.9446 15.5069Z" fill="black" fill-opacity="0.2"/>
<path d="M14.9446 15.5069C12.4844 8.06146 8.27317 7.98879 5.96345 8.88313C7.60153 8.88311 9.38251 10.6405 9.19233 12.7999C9.04018 14.5274 6.35394 13.5197 5.02983 12.7999C4.36239 13.6636 4.66211 16.743 4.94021 18.0992C9.06448 20.3151 14.0045 17.8572 14.9446 15.5069Z" fill="black" fill-opacity="0.2"/>
<path d="M25.5426 15.5069C28.0028 8.06146 32.214 7.98879 34.5237 8.88313C32.8857 8.88311 31.1047 10.6405 31.2949 12.7999C31.447 14.5274 34.1332 13.5197 35.4574 12.7999C36.1248 13.6636 35.8251 16.743 35.547 18.0992C31.4227 20.3151 26.4827 17.8572 25.5426 15.5069Z" fill="#151614"/>
<path d="M25.5426 15.5069C28.0028 8.06146 32.214 7.98879 34.5237 8.88313C32.8857 8.88311 31.1047 10.6405 31.2949 12.7999C31.447 14.5274 34.1332 13.5197 35.4574 12.7999C36.1248 13.6636 35.8251 16.743 35.547 18.0992C31.4227 20.3151 26.4827 17.8572 25.5426 15.5069Z" fill="black" fill-opacity="0.2"/>
<path d="M25.5426 15.5069C28.0028 8.06146 32.214 7.98879 34.5237 8.88313C32.8857 8.88311 31.1047 10.6405 31.2949 12.7999C31.447 14.5274 34.1332 13.5197 35.4574 12.7999C36.1248 13.6636 35.8251 16.743 35.547 18.0992C31.4227 20.3151 26.4827 17.8572 25.5426 15.5069Z" fill="black" fill-opacity="0.2"/>
<path d="M25.5426 15.5069C28.0028 8.06146 32.214 7.98879 34.5237 8.88313C32.8857 8.88311 31.1047 10.6405 31.2949 12.7999C31.447 14.5274 34.1332 13.5197 35.4574 12.7999C36.1248 13.6636 35.8251 16.743 35.547 18.0992C31.4227 20.3151 26.4827 17.8572 25.5426 15.5069Z" fill="black" fill-opacity="0.2"/>
<path d="M25.5426 15.5069C28.0028 8.06146 32.214 7.98879 34.5237 8.88313C32.8857 8.88311 31.1047 10.6405 31.2949 12.7999C31.447 14.5274 34.1332 13.5197 35.4574 12.7999C36.1248 13.6636 35.8251 16.743 35.547 18.0992C31.4227 20.3151 26.4827 17.8572 25.5426 15.5069Z" fill="black" fill-opacity="0.2"/>
<path d="M62.8078 8.06V10.28H52.8478V13.76H61.0078V15.84H52.8478V21H50.1878V8.06H62.8078ZM63.4712 11.06H66.0712V21H63.4712V11.06ZM69.8912 13.2C69.1445 13.2 68.4979 13.3467 67.9512 13.64C67.4045 13.92 66.9645 14.2667 66.6312 14.68C66.2979 15.0933 66.0645 15.4933 65.9312 15.88L65.9112 14.78C65.9245 14.62 65.9779 14.3867 66.0712 14.08C66.1645 13.76 66.3045 13.42 66.4912 13.06C66.6779 12.6867 66.9245 12.3333 67.2312 12C67.5379 11.6533 67.9112 11.3733 68.3512 11.16C68.7912 10.9467 69.3045 10.84 69.8912 10.84V13.2ZM80.1585 17.7H82.6785C82.5719 18.38 82.2852 18.9867 81.8185 19.52C81.3652 20.0533 80.7452 20.4733 79.9585 20.78C79.1719 21.0867 78.2119 21.24 77.0785 21.24C75.8119 21.24 74.6919 21.04 73.7185 20.64C72.7452 20.2267 71.9852 19.6333 71.4385 18.86C70.8919 18.0867 70.6185 17.1533 70.6185 16.06C70.6185 14.9667 70.8852 14.0333 71.4185 13.26C71.9519 12.4733 72.6919 11.8733 73.6385 11.46C74.5985 11.0467 75.7185 10.84 76.9985 10.84C78.3052 10.84 79.3919 11.0467 80.2585 11.46C81.1252 11.8733 81.7652 12.5 82.1785 13.34C82.6052 14.1667 82.7852 15.2267 82.7185 16.52H73.2385C73.3052 17.0267 73.4919 17.4867 73.7985 17.9C74.1185 18.3133 74.5452 18.64 75.0785 18.88C75.6252 19.12 76.2719 19.24 77.0185 19.24C77.8452 19.24 78.5319 19.1 79.0785 18.82C79.6385 18.5267 79.9985 18.1533 80.1585 17.7ZM76.8785 12.82C75.9185 12.82 75.1385 13.0333 74.5385 13.46C73.9385 13.8733 73.5519 14.3867 73.3785 15H80.1385C80.0719 14.3333 79.7519 13.8067 79.1785 13.42C78.6185 13.02 77.8519 12.82 76.8785 12.82ZM84.2532 11.06H86.8532V21H84.2532V11.06ZM91.4732 10.84C92.0866 10.84 92.6532 10.92 93.1732 11.08C93.6932 11.24 94.1466 11.4867 94.5332 11.82C94.9199 12.1533 95.2199 12.58 95.4332 13.1C95.6466 13.6067 95.7532 14.2133 95.7532 14.92V21H93.1532V15.38C93.1532 14.54 92.9466 13.9267 92.5332 13.54C92.1332 13.14 91.4732 12.94 90.5532 12.94C89.8599 12.94 89.2332 13.0733 88.6732 13.34C88.1132 13.6067 87.6599 13.9467 87.3132 14.36C86.9666 14.76 86.7666 15.18 86.7132 15.62L86.6932 14.6C86.7599 14.1333 86.9132 13.68 87.1532 13.24C87.3932 12.8 87.7132 12.4 88.1132 12.04C88.5266 11.6667 89.0132 11.3733 89.5732 11.16C90.1332 10.9467 90.7666 10.84 91.4732 10.84ZM97.3204 17.7H99.7204C99.8671 18.1533 100.167 18.5267 100.62 18.82C101.087 19.1 101.694 19.24 102.44 19.24C102.947 19.24 103.34 19.1933 103.62 19.1C103.9 19.0067 104.094 18.8733 104.2 18.7C104.307 18.5133 104.36 18.3067 104.36 18.08C104.36 17.8 104.274 17.5867 104.1 17.44C103.927 17.28 103.66 17.1533 103.3 17.06C102.94 16.9667 102.48 16.88 101.92 16.8C101.36 16.7067 100.82 16.5933 100.3 16.46C99.7804 16.3267 99.3204 16.1533 98.9204 15.94C98.5204 15.7133 98.2004 15.4333 97.9604 15.1C97.7337 14.7533 97.6204 14.3333 97.6204 13.84C97.6204 13.36 97.7337 12.9333 97.9604 12.56C98.2004 12.1867 98.5271 11.8733 98.9404 11.62C99.3671 11.3667 99.8604 11.1733 100.42 11.04C100.994 10.9067 101.607 10.84 102.26 10.84C103.247 10.84 104.067 10.9867 104.72 11.28C105.374 11.56 105.86 11.96 106.18 12.48C106.514 12.9867 106.68 13.5733 106.68 14.24H104.38C104.274 13.7467 104.06 13.3933 103.74 13.18C103.42 12.9533 102.927 12.84 102.26 12.84C101.607 12.84 101.114 12.94 100.78 13.14C100.447 13.34 100.28 13.6133 100.28 13.96C100.28 14.24 100.38 14.46 100.58 14.62C100.794 14.7667 101.1 14.8867 101.5 14.98C101.914 15.0733 102.427 15.1733 103.04 15.28C103.56 15.3867 104.054 15.5067 104.52 15.64C105 15.7733 105.427 15.9467 105.8 16.16C106.174 16.36 106.467 16.6333 106.68 16.98C106.907 17.3133 107.02 17.74 107.02 18.26C107.02 18.9 106.834 19.44 106.46 19.88C106.1 20.32 105.58 20.66 104.9 20.9C104.22 21.1267 103.407 21.24 102.46 21.24C101.62 21.24 100.894 21.1533 100.28 20.98C99.6804 20.7933 99.1804 20.56 98.7804 20.28C98.3804 19.9867 98.0671 19.68 97.8404 19.36C97.6271 19.0267 97.4804 18.7133 97.4004 18.42C97.3204 18.1267 97.2937 17.8867 97.3204 17.7ZM108.809 7.06H111.409V21H108.809V7.06ZM112.739 11.06H115.499L119.799 20.6L117.559 21L112.739 11.06ZM124.899 11.06L118.019 25H115.319L118.259 19.52L122.119 11.06H124.899Z" fill="#151614"/>
</svg>
