<svg width="131" height="37" viewBox="0 0 131 37" fill="none" xmlns="http://www.w3.org/2000/svg">
<path d="M47.4082 14.78C47.4082 12.76 47.8982 11.04 48.8782 9.62C49.8782 8.18 51.2782 7.46 53.0782 7.46C53.9382 7.46 55.0382 7.64 56.3782 8C56.2382 9.02 55.8882 10.27 55.3282 11.75L54.4582 11.81C54.4582 10.97 54.2582 10.25 53.8582 9.65C53.4582 9.05 52.8682 8.75 52.0882 8.75C51.3282 8.75 50.7582 9.19 50.3782 10.07C49.9982 10.93 49.8082 11.93 49.8082 13.07V16.64L53.3782 16.4L53.1082 17.99L49.8082 17.9V26.99C49.8082 27.25 49.8382 27.43 49.8982 27.53C49.9582 27.63 50.0782 27.73 50.2582 27.83C50.5982 28.01 51.1982 28.16 52.0582 28.28L52.4782 28.34L52.2382 29.24C50.5382 29.08 49.3882 29 48.7882 29C48.2082 29 47.0982 29.08 45.4582 29.24L45.2182 28.34C45.9982 28.22 46.5282 28.09 46.8082 27.95C47.1082 27.79 47.2782 27.66 47.3182 27.56C47.3782 27.46 47.4082 27.28 47.4082 27.02V17.84L45.5182 17.81L45.4282 16.97L47.4082 16.52V14.78ZM62.3527 18.08C61.5927 18.08 60.6827 18.83 59.6227 20.33V26.99C59.6227 27.25 59.6627 27.44 59.7427 27.56C59.8227 27.66 59.9727 27.75 60.1927 27.83C60.5327 27.97 61.1527 28.08 62.0527 28.16L62.5027 28.22L62.2927 29.24C60.4927 29.08 59.2027 29 58.4227 29C57.6427 29 56.5927 29.08 55.2727 29.24L55.0327 28.34C55.8127 28.22 56.3427 28.09 56.6227 27.95C56.9227 27.79 57.0927 27.66 57.1327 27.56C57.1927 27.46 57.2227 27.28 57.2227 27.02V18.92C57.2227 18.32 57.0527 17.99 56.7127 17.93C56.3727 17.89 55.9327 17.92 55.3927 18.02L55.0627 18.08L54.9127 17.18C56.3127 16.56 57.6327 16.18 58.8727 16.04L59.3527 16.58C59.3527 17.22 59.4427 17.99 59.6227 18.89L60.6127 17.63C61.4727 16.57 62.3727 16.04 63.3127 16.04C63.7127 16.04 64.4227 16.23 65.4427 16.61C65.1627 18.19 64.8227 19.48 64.4227 20.48L63.6127 20.54C63.6127 19.82 63.5027 19.23 63.2827 18.77C63.0827 18.31 62.7727 18.08 62.3527 18.08ZM73.6885 27.59C74.8885 27.59 76.0885 27.16 77.2885 26.3L77.7685 26.96C75.9485 28.64 74.1885 29.48 72.4885 29.48C70.8085 29.48 69.4185 28.9 68.3185 27.74C67.2385 26.56 66.6985 25 66.6985 23.06C66.6985 21.12 67.2485 19.47 68.3485 18.11C69.4485 16.73 70.8685 16.04 72.6085 16.04C74.3685 16.04 75.6785 16.59 76.5385 17.69C77.3985 18.77 77.8285 20.24 77.8285 22.1L69.3685 22.7C69.5285 25.96 70.9685 27.59 73.6885 27.59ZM72.4585 17.27C71.3985 17.27 70.6185 17.7 70.1185 18.56C69.6185 19.4 69.3685 20.42 69.3685 21.62L75.1285 20.9C75.1285 18.48 74.2385 17.27 72.4585 17.27ZM84.5543 27.08C84.5543 27.34 84.5743 27.52 84.6143 27.62C84.6743 27.7 84.8043 27.79 85.0043 27.89C85.3843 28.09 85.9243 28.25 86.6243 28.37L86.4143 29.24C84.7743 29.08 83.7343 29 83.2943 29C82.8743 29 81.8443 29.08 80.2043 29.24L79.9643 28.34C80.7443 28.22 81.2743 28.09 81.5543 27.95C81.8543 27.79 82.0243 27.66 82.0643 27.56C82.1243 27.46 82.1543 27.28 82.1543 27.02V18.92C82.1543 18.32 81.9843 17.99 81.6443 17.93C81.3043 17.89 80.8643 17.92 80.3243 18.02L79.9943 18.08L79.8443 17.18C81.2643 16.56 82.5643 16.18 83.7443 16.04L84.2243 16.58C84.2243 17.1 84.3243 17.66 84.5243 18.26L85.6643 17.39C86.8043 16.49 88.0043 16.04 89.2643 16.04C90.5243 16.04 91.4843 16.39 92.1443 17.09C92.8243 17.79 93.1643 18.95 93.1643 20.57V27.02C93.1643 27.28 93.1843 27.46 93.2243 27.56C93.2843 27.66 93.4043 27.76 93.5843 27.86C93.8643 28 94.3543 28.14 95.0543 28.28L95.3543 28.34L95.1443 29.24C93.5043 29.08 92.4643 29 92.0243 29C91.6043 29 90.5743 29.08 88.9343 29.24L88.7243 28.37C89.4043 28.25 89.8843 28.12 90.1643 27.98C90.4643 27.82 90.6343 27.69 90.6743 27.59C90.7343 27.49 90.7643 27.32 90.7643 27.08V21.17C90.7643 20.01 90.5543 19.17 90.1343 18.65C89.7343 18.13 89.0243 17.87 88.0043 17.87C86.9843 17.87 85.8343 18.37 84.5543 19.37V27.08ZM101.336 28.34C102.956 28.34 103.766 27.64 103.766 26.24C103.766 25.62 103.536 25.12 103.076 24.74C102.616 24.36 101.966 23.97 101.126 23.57C100.286 23.17 99.7158 22.89 99.4158 22.73C99.1158 22.55 98.8058 22.32 98.4858 22.04C97.8258 21.46 97.4958 20.64 97.4958 19.58C97.4958 18.52 97.8958 17.67 98.6958 17.03C99.5158 16.37 100.606 16.04 101.966 16.04C102.606 16.04 103.816 16.27 105.596 16.73C105.476 17.95 105.306 18.95 105.086 19.73L104.486 19.85C104.006 18.03 103.096 17.12 101.756 17.12C101.056 17.12 100.526 17.29 100.166 17.63C99.8258 17.97 99.6558 18.41 99.6558 18.95C99.6558 19.47 99.8358 19.89 100.196 20.21C100.556 20.51 100.986 20.78 101.486 21.02C101.986 21.26 102.416 21.47 102.776 21.65L103.436 21.98C104.036 22.28 104.396 22.5 104.516 22.64C104.656 22.76 104.836 22.91 105.056 23.09C105.276 23.25 105.416 23.41 105.476 23.57C105.556 23.71 105.656 23.88 105.776 24.08C105.976 24.44 106.076 24.9 106.076 25.46C106.076 26.78 105.616 27.78 104.696 28.46C103.776 29.14 102.596 29.48 101.156 29.48C99.7358 29.48 98.4858 29.21 97.4058 28.67C97.3658 28.39 97.3458 27.85 97.3458 27.05C97.3458 26.23 97.3658 25.68 97.4058 25.4L98.2758 25.22C98.4358 26.14 98.7858 26.89 99.3258 27.47C99.8658 28.05 100.536 28.34 101.336 28.34ZM113.002 27.02C113.002 27.28 113.022 27.46 113.062 27.56C113.122 27.66 113.252 27.76 113.452 27.86C113.832 28.06 114.312 28.2 114.892 28.28L115.192 28.34L114.982 29.24C113.282 29.08 112.212 29 111.772 29C111.332 29 110.292 29.08 108.652 29.24L108.412 28.34C109.192 28.22 109.722 28.09 110.002 27.95C110.302 27.79 110.472 27.66 110.512 27.56C110.572 27.46 110.602 27.28 110.602 27.02V10.34C110.602 9.76 110.432 9.42 110.092 9.32C109.812 9.28 109.352 9.32 108.712 9.44L108.412 9.5L108.262 8.57C109.842 7.91 111.352 7.54 112.792 7.46L113.212 8C113.072 8.6 113.002 9.18 113.002 9.74C113.002 10.3 113.002 10.69 113.002 10.91V27.02ZM117.867 36.32H117.507C117.047 35.56 116.727 34.59 116.547 33.41L117.087 33.14C117.647 33.4 118.157 33.53 118.617 33.53C119.577 33.53 120.327 32.95 120.867 31.79L122.127 29.03L117.327 18.41C117.087 17.91 116.897 17.6 116.757 17.48C116.617 17.34 116.327 17.26 115.887 17.24L115.707 16.31C116.987 16.45 117.977 16.52 118.677 16.52C119.397 16.52 120.397 16.45 121.677 16.31L121.617 17.18C120.977 17.28 120.517 17.38 120.237 17.48C119.957 17.56 119.817 17.73 119.817 17.99C119.817 18.11 119.847 18.25 119.907 18.41L123.057 25.61L123.207 26.36H123.387L123.597 25.46L126.417 18.44C126.497 18.28 126.537 18.14 126.537 18.02C126.537 17.76 126.377 17.58 126.057 17.48L124.707 17.21L124.647 16.34C125.647 16.46 126.487 16.52 127.167 16.52C127.847 16.52 128.687 16.46 129.687 16.34L129.477 17.27C129.037 17.29 128.747 17.37 128.607 17.51C128.467 17.63 128.297 17.94 128.097 18.44L121.767 33.17C120.867 35.27 119.567 36.32 117.867 36.32Z" fill="black"/>
<path d="M10.8008 13.2346C8.1178 12.6309 5.3382 14.2713 4.9469 15.6687C2.12944 17.4127 1.87271 20.8112 2.09652 22.2924C1.73306 22.544 0.804909 23.483 0 25.227C0.153672 26.3532 1.62002 29 6.48301 29C11.346 29 14.7461 27.1554 20.2148 27.1554C25.6834 27.1554 29.0841 29 33.9471 29C38.8101 29 40.2764 26.3532 40.4301 25.227C39.6252 23.483 38.697 22.5439 38.3336 22.2924C38.5574 20.8112 38.3006 17.4126 35.4832 15.6687C35.0919 14.2713 32.3123 12.6309 29.6293 13.2346C26.2756 13.9892 22.9817 15.6687 20.2148 15.6687C17.4479 15.6687 14.1545 13.9892 10.8008 13.2346Z" fill="url(#paint0_linear_21_223)"/>
<path d="M14.9449 22.5598C12.4846 15.1144 8.27341 15.0418 5.9637 15.9361C7.60177 15.9361 9.38276 17.6935 9.19257 19.8529C9.04043 21.5804 6.35418 20.5727 5.03008 19.8529C4.36263 20.7166 4.66235 23.796 4.94045 25.1521C9.06473 27.3681 14.0047 24.9102 14.9449 22.5598Z" fill="black" stroke="white"/>
<path d="M25.5424 22.5598C28.0027 15.1144 32.2139 15.0418 34.5236 15.9361C32.8855 15.9361 31.1045 17.6935 31.2947 19.8529C31.4469 21.5804 34.1331 20.5727 35.4572 19.8529C36.1247 20.7166 35.825 23.796 35.5469 25.1521C31.4226 27.3681 26.4826 24.9102 25.5424 22.5598Z" fill="black" stroke="white"/>
<defs>
<linearGradient id="paint0_linear_21_223" x1="20.215" y1="13.106" x2="20.215" y2="29" gradientUnits="userSpaceOnUse">
<stop stop-color="#62884E"/>
<stop offset="1" stop-color="#4C693D"/>
</linearGradient>
</defs>
</svg>
