<svg width="41" height="16" viewBox="0 0 41 16" fill="none" xmlns="http://www.w3.org/2000/svg">
<path d="M10.8008 0.181645C8.1178 -0.422033 5.3382 1.21831 4.9469 2.61571C2.12944 4.35968 1.87271 7.75819 2.09652 9.23945C1.73306 9.49098 0.804909 10.43 0 12.174C0.153672 13.3002 1.62002 15.947 6.48301 15.947C11.346 15.947 14.7461 14.1024 20.2148 14.1024C25.6834 14.1024 29.0841 15.947 33.9471 15.947C38.8101 15.947 40.2764 13.3002 40.4301 12.174C39.6252 10.43 38.697 9.49097 38.3336 9.23944C38.5574 7.75818 38.3006 4.35966 35.4832 2.6157C35.0919 1.21829 32.3123 -0.422048 29.6293 0.181629C26.2756 0.936226 22.9817 2.61571 20.2148 2.61571C17.4479 2.61571 14.1545 0.936242 10.8008 0.181645Z" fill="#A6D000"/>
<path d="M14.9446 9.5069C12.4844 2.06149 8.27317 1.98882 5.96345 2.88316C7.60153 2.88314 9.38251 4.64053 9.19233 6.79992C9.04018 8.52743 6.35394 7.51972 5.02983 6.79992C4.36239 7.66368 4.66211 10.7431 4.94021 12.0992C9.06448 14.3151 14.0045 11.8572 14.9446 9.5069Z" fill="#151614"/>
<path d="M25.5426 9.5069C28.0028 2.06149 32.214 1.98882 34.5237 2.88316C32.8857 2.88314 31.1047 4.64053 31.2949 6.79992C31.447 8.52743 34.1332 7.51972 35.4574 6.79992C36.1248 7.66368 35.8251 10.7431 35.547 12.0992C31.4227 14.3151 26.4827 11.8572 25.5426 9.5069Z" fill="#151614"/>
</svg>
