<svg width="29" height="24" viewBox="0 0 29 24" fill="none" xmlns="http://www.w3.org/2000/svg">
<path d="M11 22L26.5 22L26.5 2L2 2L2 7" stroke="#FAE232" stroke-width="4"/>
<path d="M4 8L0 8" stroke="#FAE232"/>
<path d="M9.5 20L9.5 24" stroke="#FAE232"/>
<path d="M7.5 20L7.5 24" stroke="#FAE232"/>
<path d="M11 22L26.5 22L26.5 2L2 2L2 7" stroke="#FAE232" stroke-width="4"/>
<path d="M4 8L0 8" stroke="#FAE232"/>
<path d="M9.5 20L9.5 24" stroke="#FAE232"/>
<path d="M7.5 20L7.5 24" stroke="#FAE232"/>
<rect x="24.5" y="21" width="3" height="19" transform="rotate(-180 24.5 21)" fill="#FAE232"/>
<path d="M15.5 21L15.5 3.5" stroke="#FAE232"/>
<path d="M13.5 21L13.5 3.5" stroke="#FAE232"/>
</svg>
