<svg width="156" height="40" viewBox="0 0 156 40" fill="none" xmlns="http://www.w3.org/2000/svg">
<path d="M47.4082 16.78C47.4082 14.76 47.8982 13.04 48.8782 11.62C49.8782 10.18 51.2782 9.46 53.0782 9.46C53.9382 9.46 55.0382 9.64 56.3782 10C56.2382 11.02 55.8882 12.27 55.3282 13.75L54.4582 13.81C54.4582 12.97 54.2582 12.25 53.8582 11.65C53.4582 11.05 52.8682 10.75 52.0882 10.75C51.3282 10.75 50.7582 11.19 50.3782 12.07C49.9982 12.93 49.8082 13.93 49.8082 15.07V18.64L53.3782 18.4L53.1082 19.99L49.8082 19.9V28.99C49.8082 29.25 49.8382 29.43 49.8982 29.53C49.9582 29.63 50.0782 29.73 50.2582 29.83C50.5982 30.01 51.1982 30.16 52.0582 30.28L52.4782 30.34L52.2382 31.24C50.5382 31.08 49.3882 31 48.7882 31C48.2082 31 47.0982 31.08 45.4582 31.24L45.2182 30.34C45.9982 30.22 46.5282 30.09 46.8082 29.95C47.1082 29.79 47.2782 29.66 47.3182 29.56C47.3782 29.46 47.4082 29.28 47.4082 29.02V19.84L45.5182 19.81L45.4282 18.97L47.4082 18.52V16.78ZM62.3527 20.08C61.5927 20.08 60.6827 20.83 59.6227 22.33V28.99C59.6227 29.25 59.6627 29.44 59.7427 29.56C59.8227 29.66 59.9727 29.75 60.1927 29.83C60.5327 29.97 61.1527 30.08 62.0527 30.16L62.5027 30.22L62.2927 31.24C60.4927 31.08 59.2027 31 58.4227 31C57.6427 31 56.5927 31.08 55.2727 31.24L55.0327 30.34C55.8127 30.22 56.3427 30.09 56.6227 29.95C56.9227 29.79 57.0927 29.66 57.1327 29.56C57.1927 29.46 57.2227 29.28 57.2227 29.02V20.92C57.2227 20.32 57.0527 19.99 56.7127 19.93C56.3727 19.89 55.9327 19.92 55.3927 20.02L55.0627 20.08L54.9127 19.18C56.3127 18.56 57.6327 18.18 58.8727 18.04L59.3527 18.58C59.3527 19.22 59.4427 19.99 59.6227 20.89L60.6127 19.63C61.4727 18.57 62.3727 18.04 63.3127 18.04C63.7127 18.04 64.4227 18.23 65.4427 18.61C65.1627 20.19 64.8227 21.48 64.4227 22.48L63.6127 22.54C63.6127 21.82 63.5027 21.23 63.2827 20.77C63.0827 20.31 62.7727 20.08 62.3527 20.08ZM73.6885 29.59C74.8885 29.59 76.0885 29.16 77.2885 28.3L77.7685 28.96C75.9485 30.64 74.1885 31.48 72.4885 31.48C70.8085 31.48 69.4185 30.9 68.3185 29.74C67.2385 28.56 66.6985 27 66.6985 25.06C66.6985 23.12 67.2485 21.47 68.3485 20.11C69.4485 18.73 70.8685 18.04 72.6085 18.04C74.3685 18.04 75.6785 18.59 76.5385 19.69C77.3985 20.77 77.8285 22.24 77.8285 24.1L69.3685 24.7C69.5285 27.96 70.9685 29.59 73.6885 29.59ZM72.4585 19.27C71.3985 19.27 70.6185 19.7 70.1185 20.56C69.6185 21.4 69.3685 22.42 69.3685 23.62L75.1285 22.9C75.1285 20.48 74.2385 19.27 72.4585 19.27ZM84.5543 29.08C84.5543 29.34 84.5743 29.52 84.6143 29.62C84.6743 29.7 84.8043 29.79 85.0043 29.89C85.3843 30.09 85.9243 30.25 86.6243 30.37L86.4143 31.24C84.7743 31.08 83.7343 31 83.2943 31C82.8743 31 81.8443 31.08 80.2043 31.24L79.9643 30.34C80.7443 30.22 81.2743 30.09 81.5543 29.95C81.8543 29.79 82.0243 29.66 82.0643 29.56C82.1243 29.46 82.1543 29.28 82.1543 29.02V20.92C82.1543 20.32 81.9843 19.99 81.6443 19.93C81.3043 19.89 80.8643 19.92 80.3243 20.02L79.9943 20.08L79.8443 19.18C81.2643 18.56 82.5643 18.18 83.7443 18.04L84.2243 18.58C84.2243 19.1 84.3243 19.66 84.5243 20.26L85.6643 19.39C86.8043 18.49 88.0043 18.04 89.2643 18.04C90.5243 18.04 91.4843 18.39 92.1443 19.09C92.8243 19.79 93.1643 20.95 93.1643 22.57V29.02C93.1643 29.28 93.1843 29.46 93.2243 29.56C93.2843 29.66 93.4043 29.76 93.5843 29.86C93.8643 30 94.3543 30.14 95.0543 30.28L95.3543 30.34L95.1443 31.24C93.5043 31.08 92.4643 31 92.0243 31C91.6043 31 90.5743 31.08 88.9343 31.24L88.7243 30.37C89.4043 30.25 89.8843 30.12 90.1643 29.98C90.4643 29.82 90.6343 29.69 90.6743 29.59C90.7343 29.49 90.7643 29.32 90.7643 29.08V23.17C90.7643 22.01 90.5543 21.17 90.1343 20.65C89.7343 20.13 89.0243 19.87 88.0043 19.87C86.9843 19.87 85.8343 20.37 84.5543 21.37V29.08ZM101.336 30.34C102.956 30.34 103.766 29.64 103.766 28.24C103.766 27.62 103.536 27.12 103.076 26.74C102.616 26.36 101.966 25.97 101.126 25.57C100.286 25.17 99.7158 24.89 99.4158 24.73C99.1158 24.55 98.8058 24.32 98.4858 24.04C97.8258 23.46 97.4958 22.64 97.4958 21.58C97.4958 20.52 97.8958 19.67 98.6958 19.03C99.5158 18.37 100.606 18.04 101.966 18.04C102.606 18.04 103.816 18.27 105.596 18.73C105.476 19.95 105.306 20.95 105.086 21.73L104.486 21.85C104.006 20.03 103.096 19.12 101.756 19.12C101.056 19.12 100.526 19.29 100.166 19.63C99.8258 19.97 99.6558 20.41 99.6558 20.95C99.6558 21.47 99.8358 21.89 100.196 22.21C100.556 22.51 100.986 22.78 101.486 23.02C101.986 23.26 102.416 23.47 102.776 23.65L103.436 23.98C104.036 24.28 104.396 24.5 104.516 24.64C104.656 24.76 104.836 24.91 105.056 25.09C105.276 25.25 105.416 25.41 105.476 25.57C105.556 25.71 105.656 25.88 105.776 26.08C105.976 26.44 106.076 26.9 106.076 27.46C106.076 28.78 105.616 29.78 104.696 30.46C103.776 31.14 102.596 31.48 101.156 31.48C99.7358 31.48 98.4858 31.21 97.4058 30.67C97.3658 30.39 97.3458 29.85 97.3458 29.05C97.3458 28.23 97.3658 27.68 97.4058 27.4L98.2758 27.22C98.4358 28.14 98.7858 28.89 99.3258 29.47C99.8658 30.05 100.536 30.34 101.336 30.34ZM113.002 29.02C113.002 29.28 113.022 29.46 113.062 29.56C113.122 29.66 113.252 29.76 113.452 29.86C113.832 30.06 114.312 30.2 114.892 30.28L115.192 30.34L114.982 31.24C113.282 31.08 112.212 31 111.772 31C111.332 31 110.292 31.08 108.652 31.24L108.412 30.34C109.192 30.22 109.722 30.09 110.002 29.95C110.302 29.79 110.472 29.66 110.512 29.56C110.572 29.46 110.602 29.28 110.602 29.02V12.34C110.602 11.76 110.432 11.42 110.092 11.32C109.812 11.28 109.352 11.32 108.712 11.44L108.412 11.5L108.262 10.57C109.842 9.91 111.352 9.54 112.792 9.46L113.212 10C113.072 10.6 113.002 11.18 113.002 11.74C113.002 12.3 113.002 12.69 113.002 12.91V29.02ZM117.867 38.32H117.507C117.047 37.56 116.727 36.59 116.547 35.41L117.087 35.14C117.647 35.4 118.157 35.53 118.617 35.53C119.577 35.53 120.327 34.95 120.867 33.79L122.127 31.03L117.327 20.41C117.087 19.91 116.897 19.6 116.757 19.48C116.617 19.34 116.327 19.26 115.887 19.24L115.707 18.31C116.987 18.45 117.977 18.52 118.677 18.52C119.397 18.52 120.397 18.45 121.677 18.31L121.617 19.18C120.977 19.28 120.517 19.38 120.237 19.48C119.957 19.56 119.817 19.73 119.817 19.99C119.817 20.11 119.847 20.25 119.907 20.41L123.057 27.61L123.207 28.36H123.387L123.597 27.46L126.417 20.44C126.497 20.28 126.537 20.14 126.537 20.02C126.537 19.76 126.377 19.58 126.057 19.48L124.707 19.21L124.647 18.34C125.647 18.46 126.487 18.52 127.167 18.52C127.847 18.52 128.687 18.46 129.687 18.34L129.477 19.27C129.037 19.29 128.747 19.37 128.607 19.51C128.467 19.63 128.297 19.94 128.097 20.44L121.767 35.17C120.867 37.27 119.567 38.32 117.867 38.32Z" fill="black"/>
<path d="M10.8008 15.2346C8.1178 14.6309 5.3382 16.2713 4.9469 17.6687C2.12944 19.4127 1.87271 22.8112 2.09652 24.2924C1.73306 24.544 0.804909 25.483 0 27.227C0.153672 28.3532 1.62002 31 6.48301 31C11.346 31 14.7461 29.1554 20.2148 29.1554C25.6834 29.1554 29.0841 31 33.9471 31C38.8101 31 40.2764 28.3532 40.4301 27.227C39.6252 25.483 38.697 24.5439 38.3336 24.2924C38.5574 22.8112 38.3006 19.4126 35.4832 17.6687C35.0919 16.2713 32.3123 14.6309 29.6293 15.2346C26.2756 15.9892 22.9817 17.6687 20.2148 17.6687C17.4479 17.6687 14.1545 15.9892 10.8008 15.2346Z" fill="url(#paint0_linear_4_683)"/>
<path d="M14.9446 24.5599C12.4844 17.1145 8.27317 17.0418 5.96345 17.9361C7.60153 17.9361 9.38251 19.6935 9.19233 21.8529C9.04018 23.5804 6.35394 22.5727 5.02983 21.8529C4.36239 22.7167 4.66211 25.7961 4.94021 27.1522C9.06448 29.3681 14.0045 26.9102 14.9446 24.5599Z" fill="black" stroke="white"/>
<path d="M25.5427 24.5599C28.0029 17.1145 32.2141 17.0418 34.5238 17.9361C32.8858 17.9361 31.1048 19.6935 31.295 21.8529C31.4471 23.5804 34.1334 22.5727 35.4575 21.8529C36.1249 22.7167 35.8252 25.7961 35.5471 27.1522C31.4228 29.3681 26.4828 26.9102 25.5427 24.5599Z" fill="black" stroke="white"/>
<rect x="154.198" width="1" height="40" rx="0.5" fill="#DDE1E8"/>
<defs>
<linearGradient id="paint0_linear_4_683" x1="20.215" y1="15.106" x2="20.215" y2="31" gradientUnits="userSpaceOnUse">
<stop stop-color="#62884E"/>
<stop offset="1" stop-color="#4C693D"/>
</linearGradient>
</defs>
</svg>
